0.ufo
<glyph name="rlonglegturned" format="1">
  <advance width="308"/>
  <unicode hex="027A"/>
  <outline>
    <contour>
      <point x="312" y="722" type="line"/>
      <point x="284" y="722" type="line"/>
      <point x="170" y="156" type="line"/>
      <point x="126" y="68"/>
      <point x="62" y="16"/>
      <point x="10" y="16" type="curve" smooth="yes"/>
      <point x="-8" y="16"/>
      <point x="-18" y="20"/>
      <point x="-26" y="24" type="curve"/>
      <point x="-38" y="-4" type="line"/>
      <point x="-22" y="-10"/>
      <point x="-8" y="-12"/>
      <point x="4" y="-12" type="curve" smooth="yes"/>
      <point x="66" y="-12"/>
      <point x="114" y="34"/>
      <point x="154" y="90" type="curve"/>
      <point x="158" y="90" type="line"/>
      <point x="142" y="0" type="line"/>
      <point x="166" y="0" type="line"/>
    </contour>
    <contour>
      <point x="154" y="502" type="move" name="aboveLC"/>
    </contour>
    <contour>
      <point x="-18" y="-22" type="move" name="belowLC"/>
    </contour>
  </outline>
</glyph>
<glyph name="vturned" format="1">
  <advance width="408"/>
  <unicode hex="028C"/>
  <outline>
    <contour>
      <point x="278" y="478" type="line"/>
      <point x="240" y="478" type="line"/>
      <point x="-24" y="0" type="line"/>
      <point x="6" y="0" type="line"/>
      <point x="176" y="312" type="line" smooth="yes"/>
      <point x="202" y="358"/>
      <point x="228" y="406"/>
      <point x="252" y="452" type="curve"/>
      <point x="256" y="452" type="line"/>
      <point x="264" y="408"/>
      <point x="270" y="358"/>
      <point x="278" y="312" type="curve" smooth="yes"/>
      <point x="328" y="0" type="line"/>
      <point x="356" y="0" type="line"/>
    </contour>
    <contour>
      <point x="266" y="502" type="move" name="aboveLC"/>
    </contour>
    <contour>
      <point x="166" y="-22" type="move" name="belowLC"/>
    </contour>
  </outline>
</glyph>
<glyph name="wturned" format="1">
  <advance width="674"/>
  <unicode hex="028D"/>
  <outline>
    <contour>
      <point x="558" y="478" type="line"/>
      <point x="516" y="478" type="line"/>
      <point x="372" y="166" type="line"/>
      <point x="350" y="120"/>
      <point x="328" y="68"/>
      <point x="308" y="24" type="curve"/>
      <point x="304" y="24" type="line"/>
      <point x="300" y="68"/>
      <point x="300" y="120"/>
      <point x="296" y="166" type="curve"/>
      <point x="274" y="478" type="line"/>
      <point x="232" y="478" type="line"/>
      <point x="4" y="0" type="line"/>
      <point x="32" y="0" type="line"/>
      <point x="186" y="324" type="line"/>
      <point x="208" y="368"/>
      <point x="226" y="410"/>
      <point x="246" y="452" type="curve"/>
      <point x="250" y="452" type="line"/>
      <point x="252" y="410"/>
      <point x="256" y="368"/>
      <point x="258" y="324" type="curve"/>
      <point x="282" y="0" type="line"/>
      <point x="322" y="0" type="line"/>
      <point x="472" y="324" type="line"/>
      <point x="492" y="368"/>
      <point x="510" y="410"/>
      <point x="530" y="452" type="curve"/>
      <point x="534" y="452" type="line"/>
      <point x="538" y="410"/>
      <point x="542" y="368"/>
      <point x="546" y="324" type="curve"/>
      <point x="574" y="0" type="line"/>
      <point x="602" y="0" type="line"/>
    </contour>
    <contour>
      <point x="392" y="502" type="move" name="aboveLC"/>
    </contour>
    <contour>
      <point x="302" y="-22" type="move" name="belowLC"/>
    </contour>
  </outline>
</glyph>
<glyph name="C" format="1">
  <advance width="536"/>
  <outline>
    <contour>
      <point x="58" y="246" type="curve" smooth="yes"/>
      <point x="58" y="100"/>
      <point x="130" y="-12"/>
      <point x="278" y="-12" type="curve" smooth="yes"/>
      <point x="350" y="-12"/>
      <point x="404" y="14"/>
      <point x="460" y="60" type="curve"/>
      <point x="442" y="80" type="line"/>
      <point x="392" y="38"/>
      <point x="344" y="14"/>
      <point x="280" y="14" type="curve" smooth="yes"/>
      <point x="146" y="14"/>
      <point x="88" y="118"/>
      <point x="88" y="252" type="curve" smooth="yes"/>
      <point x="88" y="422"/>
      <point x="196" y="646"/>
      <point x="388" y="646" type="curve" smooth="yes"/>
      <point x="450" y="646"/>
      <point x="492" y="610"/>
      <point x="518" y="564" type="curve"/>
      <point x="542" y="580" type="line"/>
      <point x="512" y="628"/>
      <point x="464" y="672"/>
      <point x="390" y="672" type="curve" smooth="yes"/>
      <point x="180" y="672"/>
      <point x="58" y="438"/>
    </contour>
    <contour>
      <point x="406" y="682" type="move" name="aboveUC"/>
    </contour>
    <contour>
      <point x="268" y="-22" type="move" name="belowLC"/>
    </contour>
    <contour>
      <point x="274" y="0" type="move" name="baseLC"/>
    </contour>
  </outline>
</glyph>
<glyph name="De" format="1">
  <advance width="565"/>
  <outline>
    <contour>
      <point x="-7" y="0" type="line"/>
      <point x="446" y="0" type="line"/>
      <point x="408" y="-192" type="line"/>
      <point x="432" y="-192" type="line"/>
      <point x="478" y="12" type="line"/>
      <point x="481" y="26" type="line"/>
      <point x="-2" y="26" type="line"/>
    </contour>
    <contour>
      <point x="6" y="26" type="curve"/>
      <point x="27" y="7" type="line"/>
      <point x="76" y="46"/>
      <point x="119" y="107"/>
      <point x="154" y="195" type="curve" smooth="yes"/>
      <point x="185" y="273"/>
      <point x="209" y="365"/>
      <point x="233" y="485" type="curve" smooth="yes"/>
      <point x="263" y="635" type="line"/>
      <point x="508" y="635" type="line"/>
      <point x="381" y="0" type="line"/>
      <point x="410" y="0" type="line"/>
      <point x="542" y="660" type="line"/>
      <point x="238" y="660" type="line"/>
      <point x="203" y="485" type="line" smooth="yes"/>
      <point x="180" y="370"/>
      <point x="154" y="274"/>
      <point x="125" y="200" type="curve" smooth="yes"/>
      <point x="93" y="118"/>
      <point x="55" y="58"/>
    </contour>
    <contour>
      <point x="-18" y="12" type="line"/>
      <point x="-53" y="-192" type="line"/>
      <point x="-29" y="-192" type="line"/>
      <point x="9" y="0" type="line"/>
      <point x="466" y="0" type="line"/>
      <point x="471" y="26" type="line"/>
      <point x="-15" y="26" type="line"/>
    </contour>
  </outline>
</glyph>
<glyph name="Delta" format="1">
  <advance width="526"/>
  <outline>
    <contour>
      <point x="-28" y="0" type="line"/>
      <point x="440" y="0" type="line"/>
      <point x="444" y="16" type="line"/>
      <point x="362" y="660" type="line"/>
      <point x="332" y="660" type="line"/>
      <point x="-24" y="16" type="line"/>
    </contour>
    <contour>
      <point x="216" y="396" type="line" smooth="yes"/>
      <point x="258" y="474"/>
      <point x="298" y="544"/>
      <point x="338" y="626" type="curve"/>
      <point x="342" y="626" type="line"/>
      <point x="350" y="546"/>
      <point x="360" y="470"/>
      <point x="368" y="396" type="curve"/>
      <point x="412" y="26" type="line"/>
      <point x="14" y="26" type="line"/>
    </contour>
  </outline>
</glyph>
<glyph name="En" format="1">
  <advance width="598"/>
  <outline>
    <component base="H"/>
    <contour>
      <point x="388" y="682" type="move" name="aboveUC"/>
    </contour>
    <contour>
      <point x="266" y="-22" type="move" name="belowLC"/>
    </contour>
  </outline>
</glyph>
<glyph name="Es" format="1">
  <advance width="536"/>
  <outline>
    <component base="C"/>
    <contour>
      <point x="406" y="682" type="move" name="aboveUC"/>
    </contour>
    <contour>
      <point x="268" y="-22" type="move" name="belowLC"/>
    </contour>
    <contour>
      <point x="274" y="0" type="move" name="baseLC"/>
    </contour>
  </outline>
</glyph>
<glyph name="Esdescender" format="1">
  <advance width="536"/>
  <outline>
    <contour>
      <point x="248" y="0" type="line"/>
      <point x="212" y="-192" type="line"/>
      <point x="234" y="-192" type="line"/>
      <point x="278" y="0" type="line"/>
    </contour>
    <component base="C"/>
  </outline>
</glyph>
<glyph name="Eth" format="1">
  <advance width="590"/>
  <outline>
    <contour>
      <point x="324" y="338" type="line"/>
      <point x="330" y="364" type="line"/>
      <point x="132" y="364" type="line"/>
      <point x="60" y="362" type="line"/>
      <point x="54" y="338" type="line"/>
    </contour>
    <component base="D" xOffset="18"/>
  </outline>
</glyph>
<glyph name="F" format="1">
  <advance width="448"/>
  <outline>
    <contour>
      <point x="40" y="0" type="line"/>
      <point x="70" y="0" type="line"/>
      <point x="136" y="326" type="line"/>
      <point x="398" y="326" type="line"/>
      <point x="404" y="352" type="line"/>
      <point x="140" y="352" type="line"/>
      <point x="196" y="634" type="line"/>
      <point x="508" y="634" type="line"/>
      <point x="514" y="660" type="line"/>
      <point x="172" y="660" type="line"/>
    </contour>
    <contour>
      <point x="366" y="682" type="move" name="aboveUC"/>
    </contour>
    <contour>
      <point x="66" y="-22" type="move" name="belowLC"/>
    </contour>
  </outline>
</glyph>
<glyph name="G" format="1">
  <advance width="570"/>
  <outline>
    <contour>
      <point x="58" y="246" type="curve" smooth="yes"/>
      <point x="58" y="96"/>
      <point x="132" y="-12"/>
      <point x="288" y="-12" type="curve" smooth="yes"/>
      <point x="358" y="-12"/>
      <point x="414" y="14"/>
      <point x="460" y="54" type="curve"/>
      <point x="514" y="316" type="line"/>
      <point x="326" y="316" type="line"/>
      <point x="320" y="290" type="line"/>
      <point x="478" y="290" type="line"/>
      <point x="434" y="68" type="line"/>
      <point x="402" y="38"/>
      <point x="354" y="14"/>
      <point x="290" y="14" type="curve" smooth="yes"/>
      <point x="144" y="14"/>
      <point x="88" y="122"/>
      <point x="88" y="252" type="curve" smooth="yes"/>
      <point x="88" y="422"/>
      <point x="198" y="646"/>
      <point x="398" y="646" type="curve" smooth="yes"/>
      <point x="460" y="646"/>
      <point x="502" y="610"/>
      <point x="528" y="564" type="curve"/>
      <point x="552" y="580" type="line"/>
      <point x="522" y="628"/>
      <point x="474" y="672"/>
      <point x="400" y="672" type="curve" smooth="yes"/>
      <point x="178" y="672"/>
      <point x="58" y="441"/>
    </contour>
    <contour>
      <point x="406" y="682" type="move" name="aboveUC"/>
    </contour>
    <contour>
      <point x="286" y="-22" type="move" name="belowLC"/>
    </contour>
  </outline>
</glyph>
<glyph name="Ghe" format="1">
  <advance width="480"/>
  <outline>
    <component base="Gamma"/>
    <contour>
      <point x="231" y="682" type="move" name="aboveUC"/>
    </contour>
  </outline>
</glyph>
<glyph name="Ha" format="1">
  <advance width="446"/>
  <outline>
    <component base="X"/>
    <contour>
      <point x="322" y="682" type="move" name="aboveUC"/>
    </contour>
    <contour>
      <point x="256" y="-30" type="move" name="belowLC"/>
    </contour>
  </outline>
</glyph>
<glyph name="Hbar" format="1">
  <advance width="630"/>
  <outline>
    <contour>
      <point x="86" y="520" type="line"/>
      <point x="80" y="496" type="line"/>
      <point x="642" y="496" type="line"/>
      <point x="648" y="522" type="line"/>
      <point x="160" y="522" type="line"/>
    </contour>
    <component base="H" xOffset="14"/>
  </outline>
</glyph>
<glyph name="I" format="1">
  <advance width="212"/>
  <outline>
    <contour>
      <point x="40" y="0" type="line"/>
      <point x="70" y="0" type="line"/>
      <point x="202" y="660" type="line"/>
      <point x="172" y="660" type="line"/>
    </contour>
    <contour>
      <point x="202" y="682" type="move" name="aboveUC"/>
    </contour>
    <contour>
      <point x="62" y="-30" type="move" name="belowLC"/>
    </contour>
    <contour>
      <point x="54" y="0" type="move" name="ogonekUC"/>
    </contour>
  </outline>
</glyph>
<glyph name="Icyr" format="1">
  <advance width="596"/>
  <outline>
    <contour>
      <point x="586" y="660" type="line"/>
      <point x="552" y="660" type="line"/>
      <point x="174" y="172" type="line"/>
      <point x="141" y="129"/>
      <point x="109" y="85"/>
      <point x="76" y="42" type="curve"/>
      <point x="72" y="42" type="line"/>
      <point x="88" y="106"/>
      <point x="102" y="168"/>
      <point x="114" y="230" type="curve" smooth="yes"/>
      <point x="200" y="660" type="line"/>
      <point x="172" y="660" type="line"/>
      <point x="40" y="0" type="line"/>
      <point x="74" y="0" type="line"/>
      <point x="452" y="488" type="line"/>
      <point x="485" y="531"/>
      <point x="517" y="575"/>
      <point x="550" y="618" type="curve"/>
      <point x="554" y="618" type="line"/>
      <point x="540" y="556"/>
      <point x="524" y="492"/>
      <point x="512" y="430" type="curve" smooth="yes"/>
      <point x="426" y="0" type="line"/>
      <point x="454" y="0" type="line"/>
    </contour>
    <contour>
      <point x="394" y="682" type="move" name="aboveUC"/>
    </contour>
  </outline>
</glyph>
<glyph name="Iogonek" format="1">
  <advance width="212"/>
  <outline>
    <contour>
      <point x="-12" y="-134" type="curve" smooth="yes"/>
      <point x="-12" y="-88"/>
      <point x="30" y="-36"/>
      <point x="70" y="0" type="curve"/>
      <point x="202" y="660" type="line"/>
      <point x="172" y="660" type="line"/>
      <point x="40" y="0" type="line"/>
      <point x="42" y="0" type="line"/>
      <point x="6" y="-30"/>
      <point x="-42" y="-88"/>
      <point x="-42" y="-140" type="curve" smooth="yes"/>
      <point x="-42" y="-182"/>
      <point x="-14" y="-202"/>
      <point x="22" y="-202" type="curve" smooth="yes"/>
      <point x="36" y="-202"/>
      <point x="62" y="-194"/>
      <point x="78" y="-182" type="curve"/>
      <point x="68" y="-164" type="line"/>
      <point x="54" y="-172"/>
      <point x="42" y="-176"/>
      <point x="26" y="-176" type="curve" smooth="yes"/>
      <point x="4" y="-176"/>
      <point x="-12" y="-160"/>
    </contour>
    <contour>
      <point x="202" y="682" type="move" name="aboveUC"/>
    </contour>
  </outline>
</glyph>
<glyph name="K" format="1">
  <advance width="522"/>
  <outline>
    <contour>
      <point x="40" y="0" type="line"/>
      <point x="70" y="0" type="line"/>
      <point x="120" y="244" type="line"/>
      <point x="288" y="400" type="line"/>
      <point x="432" y="0" type="line"/>
      <point x="464" y="0" type="line"/>
      <point x="312" y="420" type="line"/>
      <point x="564" y="660" type="line"/>
      <point x="526" y="660" type="line"/>
      <point x="130" y="290" type="line"/>
      <point x="128" y="290" type="line"/>
      <point x="202" y="660" type="line"/>
      <point x="172" y="660" type="line"/>
    </contour>
    <contour>
      <point x="386" y="682" type="move" name="aboveUC"/>
    </contour>
    <contour>
      <point x="262" y="-22" type="move" name="belowLC"/>
    </contour>
  </outline>
</glyph>
<glyph name="Ka" format="1">
  <advance width="516"/>
  <outline>
    <contour>
      <point x="40" y="0" type="line"/>
      <point x="70" y="0" type="line"/>
      <point x="138" y="340" type="line"/>
      <point x="262" y="340" type="line"/>
      <point x="422" y="0" type="line"/>
      <point x="452" y="0" type="line"/>
      <point x="288" y="354" type="line"/>
      <point x="582" y="660" type="line"/>
      <point x="544" y="660" type="line"/>
      <point x="260" y="366" type="line"/>
      <point x="142" y="366" type="line"/>
      <point x="202" y="660" type="line"/>
      <point x="172" y="660" type="line"/>
    </contour>
    <contour>
      <point x="380" y="682" type="move" name="aboveUC"/>
    </contour>
  </outline>
</glyph>
<glyph name="Kappa" format="1">
  <advance width="522"/>
  <outline>
    <component base="K"/>
    <contour>
      <point x="386" y="682" type="move" name="aboveUC"/>
    </contour>
    <contour>
      <point x="262" y="-22" type="move" name="belowLC"/>
    </contour>
  </outline>
</glyph>
<glyph name="L" format="1">
  <advance width="432"/>
  <outline>
    <contour>
      <point x="40" y="0" type="line"/>
      <point x="370" y="0" type="line"/>
      <point x="376" y="26" type="line"/>
      <point x="76" y="26" type="line"/>
      <point x="202" y="660" type="line"/>
      <point x="172" y="660" type="line"/>
    </contour>
    <contour>
      <point x="202" y="682" type="move" name="aboveUC"/>
    </contour>
    <contour>
      <point x="218" y="-22" type="move" name="belowLC"/>
    </contour>
  </outline>
</glyph>
<glyph name="Lslash" format="1">
  <advance width="432"/>
  <outline>
    <contour>
      <point x="122" y="274" type="line"/>
      <point x="336" y="376" type="line"/>
      <point x="342" y="408" type="line"/>
      <point x="128" y="306" type="line"/>
      <point x="102" y="294" type="line"/>
      <point x="4" y="248" type="line"/>
      <point x="-2" y="216" type="line"/>
      <point x="96" y="262" type="line"/>
    </contour>
    <component base="L"/>
  </outline>
</glyph>
<glyph name="Mu" format="1">
  <advance width="676"/>
  <outline>
    <component base="M"/>
    <contour>
      <point x="420" y="682" type="move" name="aboveUC"/>
    </contour>
    <contour>
      <point x="300" y="-30" type="move" name="belowLC"/>
    </contour>
  </outline>
</glyph>
<glyph name="Nje" format="1">
  <advance width="910"/>
  <outline>
    <contour>
      <point x="40" y="0" type="line"/>
      <point x="70" y="0" type="line"/>
      <point x="138" y="338" type="line"/>
      <point x="494" y="338" type="line"/>
      <point x="426" y="0" type="line"/>
      <point x="446" y="0" type="line"/>
      <point x="578" y="660" type="line"/>
      <point x="558" y="660" type="line"/>
      <point x="498" y="364" type="line"/>
      <point x="142" y="364" type="line"/>
      <point x="202" y="660" type="line"/>
      <point x="172" y="660" type="line"/>
    </contour>
    <contour>
      <point x="426" y="0" type="line"/>
      <point x="592" y="0" type="line" smooth="yes"/>
      <point x="750" y="0"/>
      <point x="856" y="70"/>
      <point x="856" y="210" type="curve" smooth="yes"/>
      <point x="856" y="302"/>
      <point x="780" y="364"/>
      <point x="660" y="364" type="curve" smooth="yes"/>
      <point x="528" y="364" type="line"/>
      <point x="588" y="660" type="line"/>
      <point x="558" y="660" type="line"/>
    </contour>
    <contour>
      <point x="460" y="26" type="line"/>
      <point x="524" y="338" type="line"/>
      <point x="648" y="338" type="line" smooth="yes"/>
      <point x="762" y="338"/>
      <point x="826" y="286"/>
      <point x="826" y="204" type="curve" smooth="yes"/>
      <point x="826" y="84"/>
      <point x="726" y="26"/>
      <point x="582" y="26" type="curve" smooth="yes"/>
    </contour>
  </outline>
</glyph>
<glyph name="Ohorn" format="1">
  <advance width="612"/>
  <outline>
    <contour>
      <point x="594" y="746" type="line"/>
      <point x="598" y="732"/>
      <point x="598" y="726"/>
      <point x="598" y="716" type="curve" smooth="yes"/>
      <point x="598" y="668"/>
      <point x="545" y="640"/>
      <point x="483" y="640" type="curve"/>
      <point x="509" y="615" type="line"/>
      <point x="580" y="625"/>
      <point x="628" y="668"/>
      <point x="628" y="722" type="curve" smooth="yes"/>
      <point x="628" y="734"/>
      <point x="626" y="744"/>
      <point x="620" y="758" type="curve"/>
    </contour>
    <component base="O"/>
    <contour>
      <point x="406" y="682" type="move" name="aboveUC"/>
    </contour>
    <contour>
      <point x="270" y="-22" type="move" name="belowLC"/>
    </contour>
  </outline>
</glyph>
<glyph name="P" format="1">
  <advance width="524"/>
  <outline>
    <contour>
      <point x="40" y="0" type="line"/>
      <point x="70" y="0" type="line"/>
      <point x="128" y="294" type="line"/>
      <point x="256" y="294" type="line" smooth="yes"/>
      <point x="426" y="294"/>
      <point x="532" y="366"/>
      <point x="532" y="510" type="curve" smooth="yes"/>
      <point x="532" y="614"/>
      <point x="460" y="660"/>
      <point x="340" y="660" type="curve" smooth="yes"/>
      <point x="172" y="660" type="line"/>
    </contour>
    <contour>
      <point x="134" y="320" type="line"/>
      <point x="196" y="634" type="line"/>
      <point x="322" y="634" type="line" smooth="yes"/>
      <point x="440" y="634"/>
      <point x="502" y="598"/>
      <point x="502" y="508" type="curve" smooth="yes"/>
      <point x="502" y="384"/>
      <point x="416" y="320"/>
      <point x="250" y="320" type="curve" smooth="yes"/>
    </contour>
    <contour>
      <point x="374" y="682" type="move" name="aboveUC"/>
    </contour>
    <contour>
      <point x="62" y="-30" type="move" name="belowLC"/>
    </contour>
  </outline>
</glyph>
<glyph name="Psi" format="1">
  <advance width="628"/>
  <outline>
    <contour>
      <point x="321" y="267" type="curve"/>
      <point x="324" y="267" type="line" smooth="yes"/>
      <point x="511" y="267"/>
      <point x="572" y="339"/>
      <point x="604" y="498" type="curve" smooth="yes"/>
      <point x="636" y="660" type="line"/>
      <point x="607" y="660" type="line"/>
      <point x="574" y="498" type="line" smooth="yes"/>
      <point x="547" y="364"/>
      <point x="505" y="293"/>
      <point x="329" y="293" type="curve" smooth="yes"/>
      <point x="326" y="293" type="line" smooth="yes"/>
      <point x="216" y="293"/>
      <point x="138" y="339"/>
      <point x="138" y="446" type="curve" smooth="yes"/>
      <point x="138" y="462"/>
      <point x="139" y="479"/>
      <point x="143" y="498" type="curve" smooth="yes"/>
      <point x="175" y="660" type="line"/>
      <point x="146" y="660" type="line"/>
      <point x="114" y="498" type="line" smooth="yes"/>
      <point x="110" y="478"/>
      <point x="108" y="459"/>
      <point x="108" y="442" type="curve" smooth="yes"/>
      <point x="108" y="322"/>
      <point x="201" y="267"/>
    </contour>
    <contour>
      <point x="244" y="0" type="line"/>
      <point x="274" y="0" type="line"/>
      <point x="406" y="660" type="line"/>
      <point x="376" y="660" type="line"/>
    </contour>
  </outline>
</glyph>
<glyph name="Rho" format="1">
  <advance width="524"/>
  <outline>
    <component base="P"/>
    <contour>
      <point x="374" y="682" type="move" name="aboveUC"/>
    </contour>
    <contour>
      <point x="62" y="-30" type="move" name="belowLC"/>
    </contour>
  </outline>
</glyph>
<glyph name="Sigma" format="1">
  <advance width="506"/>
  <outline>
    <contour>
      <point x="-9" y="0" type="line"/>
      <point x="415" y="0" type="line"/>
      <point x="420" y="26" type="line"/>
      <point x="37" y="26" type="line"/>
      <point x="326" y="336" type="line"/>
      <point x="162" y="634" type="line"/>
      <point x="511" y="634" type="line"/>
      <point x="516" y="660" type="line"/>
      <point x="129" y="660" type="line"/>
      <point x="125" y="644" type="line"/>
      <point x="295" y="336" type="line"/>
      <point x="-6" y="16" type="line"/>
    </contour>
  </outline>
</glyph>
<glyph name="Tau" format="1">
  <advance width="492"/>
  <outline>
    <component base="T"/>
    <contour>
      <point x="338" y="682" type="move" name="aboveUC"/>
    </contour>
    <contour>
      <point x="202" y="-22" type="move" name="belowLC"/>
    </contour>
    <contour>
      <point x="208" y="0" type="move" name="baseLC"/>
    </contour>
  </outline>
</glyph>
<glyph name="Theta" format="1">
  <advance width="612"/>
  <outline>
    <contour>
      <point x="204" y="338" type="line"/>
      <point x="444" y="338" type="line"/>
      <point x="450" y="364" type="line"/>
      <point x="210" y="364" type="line"/>
    </contour>
    <component base="O"/>
  </outline>
</glyph>
<glyph name="Uhorngrave" format="1">
  <advance width="600"/>
  <outline>
    <contour>
      <point x="664" y="766" type="line"/>
      <point x="668" y="752"/>
      <point x="668" y="746"/>
      <point x="668" y="736" type="curve" smooth="yes"/>
      <point x="668" y="690"/>
      <point x="616" y="660"/>
      <point x="558" y="660" type="curve"/>
      <point x="579" y="637" type="line"/>
      <point x="656" y="645"/>
      <point x="698" y="692"/>
      <point x="698" y="742" type="curve" smooth="yes"/>
      <point x="698" y="754"/>
      <point x="696" y="764"/>
      <point x="690" y="778" type="curve"/>
    </contour>
    <component base="U"/>
    <component base="gravecmb.cap" xOffset="256"/>
  </outline>
</glyph>
<glyph name="W" format="1">
  <advance width="726"/>
  <outline>
    <contour>
      <point x="110" y="0" type="line"/>
      <point x="148" y="0" type="line"/>
      <point x="368" y="472" type="line"/>
      <point x="392" y="526"/>
      <point x="416" y="574"/>
      <point x="436" y="628" type="curve"/>
      <point x="440" y="628" type="line"/>
      <point x="440" y="574"/>
      <point x="442" y="526"/>
      <point x="442" y="472" type="curve"/>
      <point x="458" y="0" type="line"/>
      <point x="496" y="0" type="line"/>
      <point x="780" y="660" type="line"/>
      <point x="748" y="660" type="line"/>
      <point x="580" y="260" type="line"/>
      <point x="548" y="188"/>
      <point x="518" y="116"/>
      <point x="488" y="44" type="curve"/>
      <point x="484" y="44" type="line"/>
      <point x="482" y="116"/>
      <point x="480" y="188"/>
      <point x="476" y="260" type="curve"/>
      <point x="462" y="660" type="line"/>
      <point x="428" y="660" type="line"/>
      <point x="240" y="260" type="line"/>
      <point x="208" y="188"/>
      <point x="174" y="116"/>
      <point x="140" y="44" type="curve"/>
      <point x="136" y="44" type="line"/>
      <point x="138" y="116"/>
      <point x="136" y="188"/>
      <point x="138" y="260" type="curve"/>
      <point x="138" y="660" type="line"/>
      <point x="108" y="660" type="line"/>
    </contour>
    <contour>
      <point x="460" y="682" type="move" name="aboveUC"/>
    </contour>
    <contour>
      <point x="314" y="-30" type="move" name="belowLC"/>
    </contour>
  </outline>
</glyph>
<glyph name="Y" format="1">
  <advance width="422"/>
  <outline>
    <contour>
      <point x="140" y="0" type="line"/>
      <point x="170" y="0" type="line"/>
      <point x="225" y="273" type="line"/>
      <point x="498" y="660" type="line"/>
      <point x="466" y="660" type="line"/>
      <point x="315" y="445" type="line"/>
      <point x="282" y="398"/>
      <point x="250" y="350"/>
      <point x="217" y="303" type="curve"/>
      <point x="214" y="303" type="line"/>
      <point x="200" y="352"/>
      <point x="188" y="397"/>
      <point x="175" y="445" type="curve"/>
      <point x="116" y="660" type="line"/>
      <point x="86" y="660" type="line"/>
      <point x="195" y="273" type="line"/>
    </contour>
    <contour>
      <point x="304" y="682" type="move" name="aboveUC"/>
    </contour>
    <contour>
      <point x="170" y="-30" type="move" name="belowLC"/>
    </contour>
  </outline>
</glyph>
<glyph name="Yat" format="1">
  <advance width="606"/>
  <outline>
    <contour>
      <point x="76" y="514" type="line"/>
      <point x="460" y="514" type="line"/>
      <point x="466" y="540" type="line"/>
      <point x="82" y="540" type="line"/>
    </contour>
    <contour>
      <point x="122" y="0" type="line"/>
      <point x="288" y="0" type="line" smooth="yes"/>
      <point x="446" y="0"/>
      <point x="552" y="70"/>
      <point x="552" y="210" type="curve" smooth="yes"/>
      <point x="552" y="302"/>
      <point x="476" y="364"/>
      <point x="356" y="364" type="curve" smooth="yes"/>
      <point x="224" y="364" type="line"/>
      <point x="284" y="660" type="line"/>
      <point x="254" y="660" type="line"/>
    </contour>
    <contour>
      <point x="156" y="26" type="line"/>
      <point x="220" y="338" type="line"/>
      <point x="344" y="338" type="line" smooth="yes"/>
      <point x="458" y="338"/>
      <point x="522" y="286"/>
      <point x="522" y="204" type="curve" smooth="yes"/>
      <point x="522" y="84"/>
      <point x="422" y="26"/>
      <point x="278" y="26" type="curve" smooth="yes"/>
    </contour>
  </outline>
</glyph>
<glyph name="Zeta" format="1">
  <advance width="502"/>
  <outline>
    <component base="Z"/>
    <contour>
      <point x="354" y="682" type="move" name="aboveUC"/>
    </contour>
    <contour>
      <point x="208" y="-30" type="move" name="belowLC"/>
    </contour>
  </outline>
</glyph>
<glyph name="Zhe" format="1">
  <advance width="714"/>
  <outline>
    <contour>
      <point x="-34" y="0" type="line"/>
      <point x="2" y="0" type="line"/>
      <point x="254" y="340" type="line"/>
      <point x="360" y="340" type="line"/>
      <point x="292" y="0" type="line"/>
      <point x="320" y="0" type="line"/>
      <point x="388" y="340" type="line"/>
      <point x="496" y="340" type="line"/>
      <point x="616" y="0" type="line"/>
      <point x="646" y="0" type="line"/>
      <point x="522" y="352" type="line"/>
      <point x="774" y="660" type="line"/>
      <point x="738" y="660" type="line"/>
      <point x="500" y="366" type="line"/>
      <point x="392" y="366" type="line"/>
      <point x="452" y="660" type="line"/>
      <point x="424" y="660" type="line"/>
      <point x="364" y="366" type="line"/>
      <point x="260" y="366" type="line"/>
      <point x="132" y="660" type="line"/>
      <point x="100" y="660" type="line"/>
      <point x="234" y="358" type="line"/>
    </contour>
    <contour>
      <point x="454" y="682" type="move" name="aboveUC"/>
    </contour>
  </outline>
</glyph>
<glyph name=".notdef" format="1">
  <advance width="600"/>
  <outline>
    <contour>
      <point x="42" y="0" type="line"/>
      <point x="458" y="0" type="line"/>
      <point x="588" y="660" type="line"/>
      <point x="172" y="660" type="line"/>
    </contour>
    <contour>
      <point x="294" y="340" type="line"/>
      <point x="96" y="72" type="line"/>
      <point x="202" y="610" type="line"/>
    </contour>
    <contour>
      <point x="342" y="340" type="line"/>
      <point x="544" y="610" type="line"/>
      <point x="434" y="72" type="line"/>
    </contour>
    <contour>
      <point x="228" y="208" type="line"/>
      <point x="310" y="312" type="line"/>
      <point x="314" y="312" type="line"/>
      <point x="354" y="208" type="line"/>
      <point x="414" y="32" type="line"/>
      <point x="96" y="32" type="line"/>
    </contour>
    <contour>
      <point x="324" y="364" type="line"/>
      <point x="320" y="364" type="line"/>
      <point x="286" y="456" type="line"/>
      <point x="230" y="628" type="line"/>
      <point x="522" y="628" type="line"/>
      <point x="396" y="456" type="line"/>
    </contour>
  </outline>
</glyph>
<glyph name="acutecmb" format="1">
  <advance width="0"/>
  <outline>
    <contour>
      <point x="60" y="570" type="line"/>
      <point x="88" y="570" type="line"/>
      <point x="214" y="704" type="line"/>
      <point x="176" y="704" type="line"/>
    </contour>
    <contour>
      <point x="104" y="502" type="move" name="_aboveLC"/>
    </contour>
  </outline>
</glyph>
<glyph name="acutecmb.cap" format="1">
  <advance width="0"/>
  <outline>
    <contour>
      <point x="94" y="710" type="line"/>
      <point x="122" y="710" type="line"/>
      <point x="242" y="812" type="line"/>
      <point x="204" y="812" type="line"/>
    </contour>
    <contour>
      <point x="136" y="682" type="move" name="_aboveUC"/>
    </contour>
  </outline>
</glyph>
<glyph name="acyr" format="1">
  <advance width="524"/>
  <outline>
    <component base="a"/>
    <contour>
      <point x="314" y="502" type="move" name="aboveLC"/>
    </contour>
    <contour>
      <point x="224" y="-22" type="move" name="belowLC"/>
    </contour>
  </outline>
</glyph>
<glyph name="arrowleft" format="1">
  <advance width="594"/>
  <outline>
    <contour>
      <point x="21" y="247" type="line"/>
      <point x="279" y="-15" type="line"/>
      <point x="297" y="3" type="line"/>
      <point x="65" y="237" type="line"/>
      <point x="573" y="237" type="line"/>
      <point x="573" y="263" type="line"/>
      <point x="65" y="263" type="line"/>
      <point x="297" y="497" type="line"/>
      <point x="279" y="515" type="line"/>
      <point x="21" y="253" type="line"/>
    </contour>
  </outline>
</glyph>
<glyph name="arrowright" format="1">
  <advance width="594"/>
  <outline>
    <contour>
      <point x="573" y="253" type="line"/>
      <point x="315" y="515" type="line"/>
      <point x="297" y="497" type="line"/>
      <point x="529" y="263" type="line"/>
      <point x="21" y="263" type="line"/>
      <point x="21" y="237" type="line"/>
      <point x="529" y="237" type="line"/>
      <point x="297" y="3" type="line"/>
      <point x="315" y="-15" type="line"/>
      <point x="573" y="247" type="line"/>
    </contour>
  </outline>
</glyph>
<glyph name="b.sups" format="1">
  <advance width="352"/>
  <outline>
    <contour>
      <point x="86" y="270" type="line"/>
      <point x="98" y="312" type="line"/>
      <point x="102" y="312" type="line"/>
      <point x="120" y="276"/>
      <point x="150" y="262"/>
      <point x="182" y="262" type="curve" smooth="yes"/>
      <point x="272" y="262"/>
      <point x="358" y="358"/>
      <point x="358" y="478" type="curve" smooth="yes"/>
      <point x="358" y="554"/>
      <point x="320" y="594"/>
      <point x="264" y="594" type="curve" smooth="yes"/>
      <point x="218" y="594"/>
      <point x="182" y="574"/>
      <point x="148" y="546" type="curve"/>
      <point x="146" y="546" type="line"/>
      <point x="160" y="612" type="line"/>
      <point x="186" y="744" type="line"/>
      <point x="160" y="744" type="line"/>
      <point x="66" y="270" type="line"/>
    </contour>
    <contour>
      <point x="262" y="570" type="curve" smooth="yes"/>
      <point x="302" y="570"/>
      <point x="332" y="540"/>
      <point x="332" y="474" type="curve" smooth="yes"/>
      <point x="332" y="380"/>
      <point x="258" y="286"/>
      <point x="184" y="286" type="curve" smooth="yes"/>
      <point x="156" y="286"/>
      <point x="130" y="300"/>
      <point x="106" y="344" type="curve"/>
      <point x="140" y="512" type="line"/>
      <point x="178" y="546"/>
      <point x="222" y="570"/>
    </contour>
  </outline>
</glyph>
<glyph name="backslash" format="1">
  <advance width="350"/>
  <outline>
    <contour>
      <point x="238" y="-160" type="line"/>
      <point x="262" y="-160" type="line"/>
      <point x="114" y="710" type="line"/>
      <point x="90" y="710" type="line"/>
    </contour>
  </outline>
</glyph>
<glyph name="be" format="1">
  <advance width="508"/>
  <outline>
    <contour>
      <point x="212" y="-12" type="curve" smooth="yes"/>
      <point x="320" y="-22"/>
      <point x="435" y="78"/>
      <point x="450" y="248" type="curve" smooth="yes"/>
      <point x="461" y="365"/>
      <point x="407" y="451"/>
      <point x="298" y="460" type="curve" smooth="yes"/>
      <point x="234" y="466"/>
      <point x="161" y="434"/>
      <point x="98" y="368" type="curve"/>
      <point x="93" y="339" type="line"/>
      <point x="172" y="419"/>
      <point x="236" y="440"/>
      <point x="292" y="435" type="curve" smooth="yes"/>
      <point x="389" y="426"/>
      <point x="430" y="344"/>
      <point x="421" y="247" type="curve"/>
      <point x="409" y="103"/>
      <point x="313" y="5"/>
      <point x="216" y="14" type="curve" smooth="yes"/>
      <point x="109" y="23"/>
      <point x="69" y="119"/>
      <point x="80" y="250" type="curve" smooth="yes"/>
      <point x="113" y="623"/>
      <point x="188" y="641"/>
      <point x="421" y="659" type="curve" smooth="yes"/>
      <point x="458" y="662"/>
      <point x="486" y="665"/>
      <point x="513" y="676" type="curve"/>
      <point x="512" y="707" type="line"/>
      <point x="482" y="695"/>
      <point x="470" y="692"/>
      <point x="421" y="688" type="curve" smooth="yes"/>
      <point x="197" y="671"/>
      <point x="86" y="637"/>
      <point x="52" y="250" type="curve" smooth="yes"/>
      <point x="39" y="96"/>
      <point x="95" y="-2"/>
    </contour>
  </outline>
</glyph>
<glyph name="beta.alt" format="1">
  <advance width="517"/>
  <outline>
    <contour>
      <point x="250" y="-12" type="curve" smooth="yes"/>
      <point x="359" y="-12"/>
      <point x="457" y="82"/>
      <point x="457" y="206" type="curve" smooth="yes"/>
      <point x="457" y="307"/>
      <point x="410" y="362"/>
      <point x="312" y="378" type="curve"/>
      <point x="313" y="382" type="line"/>
      <point x="412" y="428"/>
      <point x="469" y="507"/>
      <point x="469" y="594" type="curve" smooth="yes"/>
      <point x="469" y="686"/>
      <point x="404" y="733"/>
      <point x="330" y="733" type="curve" smooth="yes"/>
      <point x="229" y="733"/>
      <point x="164" y="641"/>
      <point x="140" y="513" type="curve" smooth="yes"/>
      <point x="86" y="227" type="line"/>
      <point x="81" y="204"/>
      <point x="79" y="184"/>
      <point x="79" y="165" type="curve" smooth="yes"/>
      <point x="79" y="44"/>
      <point x="170" y="-12"/>
    </contour>
    <contour>
      <point x="107" y="170" type="curve" smooth="yes"/>
      <point x="107" y="260"/>
      <point x="138" y="366"/>
      <point x="165" y="499" type="curve"/>
      <point x="189" y="640"/>
      <point x="252" y="705"/>
      <point x="327" y="705" type="curve" smooth="yes"/>
      <point x="392" y="705"/>
      <point x="440" y="669"/>
      <point x="440" y="592" type="curve" smooth="yes"/>
      <point x="440" y="482"/>
      <point x="366" y="388"/>
      <point x="123" y="367" type="curve"/>
      <point x="126" y="340" type="line"/>
      <point x="218" y="356"/>
      <point x="265" y="359"/>
      <point x="281" y="359" type="curve" smooth="yes"/>
      <point x="384" y="359"/>
      <point x="426" y="286"/>
      <point x="426" y="200" type="curve" smooth="yes"/>
      <point x="426" y="93"/>
      <point x="349" y="14"/>
      <point x="256" y="14" type="curve" smooth="yes"/>
      <point x="200" y="14"/>
      <point x="107" y="41"/>
    </contour>
  </outline>
</glyph>
<glyph name="bracketleft" format="1">
  <advance width="262"/>
  <outline>
    <contour>
      <point x="46" y="-130" type="line"/>
      <point x="208" y="686" type="line"/>
      <point x="332" y="686" type="line"/>
      <point x="334" y="708" type="line"/>
      <point x="190" y="708" type="line"/>
      <point x="18" y="-152" type="line"/>
      <point x="162" y="-152" type="line"/>
      <point x="168" y="-130" type="line"/>
    </contour>
  </outline>
</glyph>
<glyph name="bracketleftwhite" format="1">
  <advance width="315"/>
  <outline>
    <contour>
      <point x="11" y="-152" type="line"/>
      <point x="213" y="-152" type="line"/>
      <point x="217" y="-131" type="line"/>
      <point x="98" y="-131" type="line"/>
      <point x="262" y="687" type="line"/>
      <point x="381" y="687" type="line"/>
      <point x="385" y="708" type="line"/>
      <point x="183" y="708" type="line"/>
    </contour>
    <contour>
      <point x="37" y="-131" type="line"/>
      <point x="201" y="687" type="line"/>
      <point x="239" y="687" type="line"/>
      <point x="76" y="-131" type="line"/>
    </contour>
  </outline>
</glyph>
<glyph name="bracketright" format="1">
  <advance width="262"/>
  <outline>
    <contour>
      <point x="-60" y="-130" type="line"/>
      <point x="-64" y="-152" type="line"/>
      <point x="82" y="-152" type="line"/>
      <point x="254" y="708" type="line"/>
      <point x="108" y="708" type="line"/>
      <point x="104" y="686" type="line"/>
      <point x="228" y="686" type="line"/>
      <point x="62" y="-130" type="line"/>
    </contour>
  </outline>
</glyph>
<glyph name="bracketrightwhite" format="1">
  <advance width="315"/>
  <outline>
    <contour>
      <point x="-64" y="-131" type="line"/>
      <point x="-68" y="-152" type="line"/>
      <point x="134" y="-152" type="line"/>
      <point x="306" y="708" type="line"/>
      <point x="103" y="708" type="line"/>
      <point x="99" y="687" type="line"/>
      <point x="219" y="687" type="line"/>
      <point x="55" y="-131" type="line"/>
    </contour>
    <contour>
      <point x="77" y="-131" type="line"/>
      <point x="241" y="687" type="line"/>
      <point x="279" y="687" type="line"/>
      <point x="116" y="-131" type="line"/>
    </contour>
  </outline>
</glyph>
<glyph name="brackhalfbotright" format="1">
  <advance width="262"/>
  <outline>
    <contour>
      <point x="144" y="278" type="line"/>
      <point x="62" y="-130" type="line"/>
      <point x="-60" y="-130" type="line"/>
      <point x="-64" y="-152" type="line"/>
      <point x="82" y="-152" type="line"/>
      <point x="168" y="278" type="line"/>
    </contour>
  </outline>
</glyph>
<glyph name="brackhalftopleft" format="1">
  <advance width="262"/>
  <outline>
    <contour>
      <point x="128" y="278" type="line"/>
      <point x="210" y="686" type="line"/>
      <point x="332" y="686" type="line"/>
      <point x="336" y="708" type="line"/>
      <point x="190" y="708" type="line"/>
      <point x="104" y="278" type="line"/>
    </contour>
  </outline>
</glyph>
<glyph name="brackhalftopright" format="1">
  <advance width="262"/>
  <outline>
    <contour>
      <point x="168" y="278" type="line"/>
      <point x="254" y="708" type="line"/>
      <point x="108" y="708" type="line"/>
      <point x="104" y="686" type="line"/>
      <point x="226" y="686" type="line"/>
      <point x="146" y="278" type="line"/>
    </contour>
  </outline>
</glyph>
<glyph name="breveacute.cap" format="1">
  <advance width="0"/>
  <outline>
    <contour>
      <point x="34" y="796" type="line"/>
      <point x="60" y="796" type="line"/>
      <point x="168" y="890" type="line"/>
      <point x="132" y="890" type="line"/>
    </contour>
    <contour>
      <point x="52" y="710" type="curve" smooth="yes"/>
      <point x="122" y="710"/>
      <point x="164" y="766"/>
      <point x="176" y="808" type="curve"/>
      <point x="152" y="808" type="line"/>
      <point x="138" y="772"/>
      <point x="106" y="734"/>
      <point x="54" y="734" type="curve" smooth="yes"/>
      <point x="4" y="734"/>
      <point x="-14" y="770"/>
      <point x="-12" y="808" type="curve"/>
      <point x="-34" y="808" type="line"/>
      <point x="-37" y="767"/>
      <point x="-18" y="710"/>
    </contour>
    <contour>
      <point x="62" y="682" type="move" name="_aboveUC"/>
    </contour>
  </outline>
</glyph>
<glyph name="brevebelowcmb" format="1">
  <advance width="0"/>
  <outline>
    <contour>
      <point x="-46" y="-214" type="curve" smooth="yes"/>
      <point x="30" y="-214"/>
      <point x="68" y="-152"/>
      <point x="86" y="-100" type="curve"/>
      <point x="62" y="-100" type="line"/>
      <point x="44" y="-150"/>
      <point x="6" y="-190"/>
      <point x="-44" y="-190" type="curve" smooth="yes"/>
      <point x="-94" y="-190"/>
      <point x="-114" y="-154"/>
      <point x="-110" y="-100" type="curve"/>
      <point x="-132" y="-100" type="line"/>
      <point x="-136" y="-152"/>
      <point x="-122" y="-214"/>
    </contour>
    <contour>
      <point x="-6" y="-30" type="move" name="_belowLC"/>
    </contour>
  </outline>
</glyph>
<glyph name="brevecmb" format="1">
  <advance width="0"/>
  <outline>
    <contour>
      <point x="114" y="576" type="curve" smooth="yes"/>
      <point x="190" y="576"/>
      <point x="228" y="638"/>
      <point x="246" y="690" type="curve"/>
      <point x="222" y="690" type="line"/>
      <point x="204" y="640"/>
      <point x="166" y="600"/>
      <point x="116" y="600" type="curve" smooth="yes"/>
      <point x="66" y="600"/>
      <point x="46" y="636"/>
      <point x="50" y="690" type="curve"/>
      <point x="28" y="690" type="line"/>
      <point x="24" y="638"/>
      <point x="38" y="576"/>
    </contour>
    <contour>
      <point x="104" y="502" type="move" name="_aboveLC"/>
    </contour>
  </outline>
</glyph>
<glyph name="brevehoi.cap" format="1">
  <advance width="0"/>
  <outline>
    <contour>
      <point x="52" y="710" type="curve" smooth="yes"/>
      <point x="122" y="710"/>
      <point x="164" y="766"/>
      <point x="176" y="808" type="curve"/>
      <point x="152" y="808" type="line"/>
      <point x="138" y="772"/>
      <point x="106" y="734"/>
      <point x="54" y="734" type="curve" smooth="yes"/>
      <point x="4" y="734"/>
      <point x="-14" y="770"/>
      <point x="-12" y="808" type="curve"/>
      <point x="-34" y="808" type="line"/>
      <point x="-37" y="767"/>
      <point x="-18" y="710"/>
    </contour>
    <contour>
      <point x="44" y="910" type="line"/>
      <point x="92" y="908"/>
      <point x="108" y="896"/>
      <point x="108" y="874" type="curve" smooth="yes"/>
      <point x="108" y="846"/>
      <point x="88" y="825"/>
      <point x="38" y="812" type="curve"/>
      <point x="46" y="792" type="line"/>
      <point x="101" y="808"/>
      <point x="134" y="834"/>
      <point x="134" y="880" type="curve" smooth="yes"/>
      <point x="134" y="908"/>
      <point x="104" y="932"/>
      <point x="48" y="932" type="curve"/>
    </contour>
    <contour>
      <point x="62" y="682" type="move" name="_aboveUC"/>
    </contour>
  </outline>
</glyph>
<glyph name="brevetilde" format="1">
  <advance width="0"/>
  <outline>
    <contour>
      <point x="70" y="576" type="curve" smooth="yes"/>
      <point x="142" y="576"/>
      <point x="184" y="632"/>
      <point x="202" y="674" type="curve"/>
      <point x="178" y="674" type="line"/>
      <point x="160" y="635"/>
      <point x="118" y="600"/>
      <point x="72" y="600" type="curve" smooth="yes"/>
      <point x="26" y="600"/>
      <point x="4" y="632"/>
      <point x="6" y="674" type="curve"/>
      <point x="-16" y="674" type="line"/>
      <point x="-18" y="632"/>
      <point x="-2" y="576"/>
    </contour>
    <contour>
      <point x="8" y="702" type="line"/>
      <point x="16" y="728"/>
      <point x="38" y="750"/>
      <point x="54" y="750" type="curve" smooth="yes"/>
      <point x="94" y="750"/>
      <point x="98" y="700"/>
      <point x="152" y="700" type="curve" smooth="yes"/>
      <point x="184" y="700"/>
      <point x="212" y="736"/>
      <point x="222" y="772" type="curve"/>
      <point x="200" y="772" type="line"/>
      <point x="192" y="746"/>
      <point x="170" y="724"/>
      <point x="154" y="724" type="curve" smooth="yes"/>
      <point x="114" y="724"/>
      <point x="110" y="774"/>
      <point x="56" y="774" type="curve" smooth="yes"/>
      <point x="24" y="774"/>
      <point x="-4" y="738"/>
      <point x="-14" y="702" type="curve"/>
    </contour>
    <contour>
      <point x="62" y="502" type="move" name="_aboveLC"/>
    </contour>
  </outline>
</glyph>
<glyph name="brokenbar" format="1">
  <advance width="212"/>
  <outline>
    <contour>
      <point x="100" y="274" type="line"/>
      <point x="126" y="274" type="line"/>
      <point x="126" y="750" type="line"/>
      <point x="100" y="750" type="line"/>
    </contour>
    <contour>
      <point x="100" y="220" type="line"/>
      <point x="100" y="-250" type="line"/>
      <point x="126" y="-250" type="line"/>
      <point x="126" y="220" type="line"/>
    </contour>
  </outline>
</glyph>
<glyph name="caroncmb" format="1">
  <advance width="0"/>
  <outline>
    <contour>
      <point x="244" y="704" type="line"/>
      <point x="216" y="704" type="line"/>
      <point x="120" y="604" type="line"/>
      <point x="116" y="604" type="line"/>
      <point x="60" y="704" type="line"/>
      <point x="36" y="704" type="line"/>
      <point x="104" y="570" type="line"/>
      <point x="122" y="570" type="line"/>
    </contour>
    <contour>
      <point x="104" y="502" type="move" name="_aboveLC"/>
    </contour>
  </outline>
</glyph>
<glyph name="cedillacmb" format="1">
  <advance width="0"/>
  <outline>
    <contour>
      <point x="-66" y="-74" type="line"/>
      <point x="-26" y="-84"/>
      <point x="-8" y="-94"/>
      <point x="-8" y="-120" type="curve" smooth="yes"/>
      <point x="-8" y="-156"/>
      <point x="-50" y="-176"/>
      <point x="-106" y="-188" type="curve"/>
      <point x="-102" y="-208" type="line"/>
      <point x="-40" y="-198"/>
      <point x="18" y="-170"/>
      <point x="18" y="-114" type="curve" smooth="yes"/>
      <point x="18" y="-84"/>
      <point x="-4" y="-68"/>
      <point x="-28" y="-60" type="curve"/>
      <point x="16" y="2" type="line"/>
      <point x="-12" y="2" type="line"/>
    </contour>
    <contour>
      <point x="0" y="0" type="move" name="_baseLC"/>
    </contour>
  </outline>
</glyph>
<glyph name="ceilingleft" format="1">
  <advance width="262"/>
  <outline>
    <contour>
      <point x="72" y="0" type="line"/>
      <point x="204" y="666" type="line"/>
      <point x="326" y="666" type="line"/>
      <point x="330" y="688" type="line"/>
      <point x="184" y="688" type="line"/>
      <point x="48" y="0" type="line"/>
    </contour>
  </outline>
</glyph>
<glyph name="checkbox" format="1">
  <advance width="758"/>
  <outline>
    <contour>
      <point x="628" y="604" type="line"/>
      <point x="628" y="20" type="line"/>
      <point x="100" y="20" type="line"/>
      <point x="100" y="604" type="line"/>
    </contour>
    <contour>
      <point x="70" y="-10" type="line"/>
      <point x="648" y="-10" type="line"/>
      <point x="688" y="40" type="line"/>
      <point x="688" y="670" type="line"/>
      <point x="120" y="670" type="line"/>
      <point x="70" y="626" type="line"/>
    </contour>
  </outline>
</glyph>
<glyph name="checkedbox" format="1">
  <advance width="760"/>
  <outline>
    <contour>
      <point x="628" y="604" type="line"/>
      <point x="628" y="22" type="line"/>
      <point x="102" y="22" type="line"/>
      <point x="102" y="604" type="line"/>
    </contour>
    <contour>
      <point x="70" y="-10" type="line"/>
      <point x="648" y="-10" type="line"/>
      <point x="690" y="42" type="line"/>
      <point x="690" y="670" type="line"/>
      <point x="122" y="670" type="line"/>
      <point x="70" y="626" type="line"/>
    </contour>
    <contour>
      <point x="292" y="104" type="line"/>
      <point x="400" y="350"/>
      <point x="608" y="594"/>
      <point x="801" y="755" type="curve"/>
      <point x="782" y="778" type="line"/>
      <point x="590" y="614"/>
      <point x="378" y="360"/>
      <point x="277" y="132" type="curve"/>
      <point x="273" y="132" type="line"/>
      <point x="264" y="222"/>
      <point x="234" y="320"/>
      <point x="202" y="400" type="curve"/>
      <point x="176" y="386" type="line"/>
      <point x="210" y="306"/>
      <point x="239" y="203"/>
      <point x="252" y="100" type="curve"/>
    </contour>
  </outline>
</glyph>
<glyph name="circumflexbreve" format="1">
  <advance width="0"/>
  <outline>
    <contour>
      <point x="100" y="664" type="line"/>
      <point x="76" y="664" type="line"/>
      <point x="-34" y="570" type="line"/>
      <point x="-4" y="570" type="line"/>
      <point x="82" y="634" type="line"/>
      <point x="86" y="634" type="line"/>
      <point x="148" y="570" type="line"/>
      <point x="172" y="570" type="line"/>
    </contour>
    <contour>
      <point x="92" y="688" type="curve" smooth="yes"/>
      <point x="164" y="688"/>
      <point x="198" y="734"/>
      <point x="216" y="772" type="curve"/>
      <point x="192" y="772" type="line"/>
      <point x="174" y="738"/>
      <point x="140" y="712"/>
      <point x="94" y="712" type="curve" smooth="yes"/>
      <point x="48" y="712"/>
      <point x="26" y="736"/>
      <point x="28" y="772" type="curve"/>
      <point x="6" y="772" type="line"/>
      <point x="4" y="734"/>
      <point x="20" y="688"/>
    </contour>
    <contour>
      <point x="62" y="502" type="move" name="_aboveLC"/>
    </contour>
  </outline>
</glyph>
<glyph name="circumflexcmb" format="1">
  <advance width="0"/>
  <outline>
    <contour>
      <point x="8" y="570" type="line"/>
      <point x="36" y="570" type="line"/>
      <point x="132" y="670" type="line"/>
      <point x="136" y="670" type="line"/>
      <point x="192" y="570" type="line"/>
      <point x="216" y="570" type="line"/>
      <point x="148" y="704" type="line"/>
      <point x="130" y="704" type="line"/>
    </contour>
    <contour>
      <point x="104" y="502" type="move" name="_aboveLC"/>
    </contour>
    <contour>
      <point x="144" y="710" type="move" name="aboveLC"/>
    </contour>
  </outline>
</glyph>
<glyph name="circumflexcmb.cap" format="1">
  <advance width="0"/>
  <outline>
    <contour>
      <point x="20" y="710" type="line"/>
      <point x="50" y="710" type="line"/>
      <point x="140" y="786" type="line"/>
      <point x="144" y="786" type="line"/>
      <point x="202" y="710" type="line"/>
      <point x="228" y="710" type="line"/>
      <point x="156" y="812" type="line"/>
      <point x="132" y="812" type="line"/>
    </contour>
    <contour>
      <point x="136" y="683" type="move" name="_aboveUC"/>
    </contour>
  </outline>
</glyph>
<glyph name="circumflexgrave.cap" format="1">
  <advance width="0"/>
  <outline>
    <contour>
      <point x="148" y="872" type="line"/>
      <point x="118" y="872" type="line"/>
      <point x="180" y="768" type="line"/>
      <point x="202" y="768" type="line"/>
    </contour>
    <contour>
      <point x="-48" y="710" type="line"/>
      <point x="-18" y="710" type="line"/>
      <point x="66" y="780" type="line"/>
      <point x="70" y="780" type="line"/>
      <point x="126" y="710" type="line"/>
      <point x="152" y="710" type="line"/>
      <point x="82" y="806" type="line"/>
      <point x="58" y="806" type="line"/>
    </contour>
    <contour>
      <point x="62" y="682" type="move" name="_aboveUC"/>
    </contour>
  </outline>
</glyph>
<glyph name="circumflexhoi" format="1">
  <advance width="0"/>
  <outline>
    <contour>
      <point x="174" y="752" type="line"/>
      <point x="222" y="746"/>
      <point x="238" y="734"/>
      <point x="238" y="708" type="curve" smooth="yes"/>
      <point x="238" y="680"/>
      <point x="218" y="660"/>
      <point x="168" y="646" type="curve"/>
      <point x="176" y="626" type="line"/>
      <point x="230" y="642"/>
      <point x="264" y="668"/>
      <point x="264" y="714" type="curve" smooth="yes"/>
      <point x="264" y="746"/>
      <point x="234" y="770"/>
      <point x="178" y="774" type="curve"/>
    </contour>
    <contour>
      <point x="-24" y="570" type="line"/>
      <point x="4" y="570" type="line"/>
      <point x="84" y="648" type="line"/>
      <point x="88" y="648" type="line"/>
      <point x="136" y="570" type="line"/>
      <point x="160" y="570" type="line"/>
      <point x="100" y="682" type="line"/>
      <point x="82" y="682" type="line"/>
    </contour>
    <contour>
      <point x="62" y="502" type="move" name="_aboveLC"/>
    </contour>
  </outline>
</glyph>
<glyph name="circumflextilde.cap" format="1">
  <advance width="0"/>
  <outline>
    <contour>
      <point x="-48" y="710" type="line"/>
      <point x="-18" y="710" type="line"/>
      <point x="66" y="780" type="line"/>
      <point x="70" y="780" type="line"/>
      <point x="126" y="710" type="line"/>
      <point x="152" y="710" type="line"/>
      <point x="82" y="806" type="line"/>
      <point x="58" y="806" type="line"/>
    </contour>
    <contour>
      <point x="-37" y="840" type="curve"/>
      <point x="-15" y="840" type="line"/>
      <point x="-4" y="874"/>
      <point x="10" y="896"/>
      <point x="35" y="896" type="curve" smooth="yes"/>
      <point x="74" y="896"/>
      <point x="88" y="838"/>
      <point x="134" y="838" type="curve" smooth="yes"/>
      <point x="174" y="838"/>
      <point x="202" y="880"/>
      <point x="209" y="918" type="curve"/>
      <point x="187" y="918" type="line"/>
      <point x="176" y="884"/>
      <point x="162" y="862"/>
      <point x="137" y="862" type="curve" smooth="yes"/>
      <point x="98" y="862"/>
      <point x="84" y="920"/>
      <point x="38" y="920" type="curve" smooth="yes"/>
      <point x="-2" y="920"/>
      <point x="-30" y="878"/>
    </contour>
    <contour>
      <point x="62" y="682" type="move" name="_aboveUC"/>
    </contour>
  </outline>
</glyph>
<glyph name="commabelowcmb" format="1">
  <advance width="0"/>
  <outline>
    <contour>
      <point x="-46" y="-80" type="line"/>
      <point x="-26" y="-86"/>
      <point x="-4" y="-94"/>
      <point x="-4" y="-120" type="curve" smooth="yes"/>
      <point x="-4" y="-156"/>
      <point x="-50" y="-176"/>
      <point x="-106" y="-188" type="curve"/>
      <point x="-102" y="-208" type="line"/>
      <point x="-40" y="-198"/>
      <point x="22" y="-170"/>
      <point x="22" y="-114" type="curve" smooth="yes"/>
      <point x="22" y="-84"/>
      <point x="-4" y="-68"/>
      <point x="-34" y="-58" type="curve"/>
    </contour>
    <contour>
      <point x="-6" y="-30" type="move" name="_belowLC"/>
    </contour>
  </outline>
</glyph>
<glyph name="commabelowcmb.alt" format="1">
  <advance width="0"/>
  <outline>
    <contour>
      <point x="94" y="564" type="line"/>
      <point x="74" y="570"/>
      <point x="52" y="578"/>
      <point x="52" y="604" type="curve" smooth="yes"/>
      <point x="52" y="640"/>
      <point x="98" y="660"/>
      <point x="154" y="672" type="curve"/>
      <point x="150" y="692" type="line"/>
      <point x="88" y="682"/>
      <point x="26" y="654"/>
      <point x="26" y="598" type="curve" smooth="yes"/>
      <point x="26" y="568"/>
      <point x="52" y="552"/>
      <point x="82" y="542" type="curve"/>
    </contour>
    <contour>
      <point x="58" y="502" type="move" name="_aboveLC"/>
    </contour>
  </outline>
</glyph>
<glyph name="commercemark" format="1">
  <advance width="575"/>
  <outline>
    <contour>
      <point x="496" y="358" type="curve" smooth="yes"/>
      <point x="534" y="358"/>
      <point x="568" y="376"/>
      <point x="596" y="402" type="curve"/>
      <point x="581" y="419" type="line"/>
      <point x="555" y="395"/>
      <point x="533" y="383"/>
      <point x="503" y="383" type="curve" smooth="yes"/>
      <point x="458" y="383"/>
      <point x="427" y="421"/>
      <point x="427" y="485" type="curve" smooth="yes"/>
      <point x="427" y="591"/>
      <point x="497" y="655"/>
      <point x="559" y="655" type="curve" smooth="yes"/>
      <point x="586" y="655"/>
      <point x="601" y="644"/>
      <point x="614" y="625" type="curve"/>
      <point x="637" y="644" type="line"/>
      <point x="624" y="663"/>
      <point x="598" y="680"/>
      <point x="566" y="680" type="curve" smooth="yes"/>
      <point x="475" y="680"/>
      <point x="397" y="599"/>
      <point x="397" y="481" type="curve" smooth="yes"/>
      <point x="397" y="407"/>
      <point x="434" y="358"/>
    </contour>
    <contour>
      <point x="50" y="370" type="line"/>
      <point x="78" y="370" type="line"/>
      <point x="112" y="540" type="line"/>
      <point x="128" y="642" type="line"/>
      <point x="132" y="642" type="line"/>
      <point x="174" y="418" type="line"/>
      <point x="200" y="418" type="line"/>
      <point x="330" y="642" type="line"/>
      <point x="334" y="642" type="line"/>
      <point x="310" y="540" type="line"/>
      <point x="276" y="370" type="line"/>
      <point x="304" y="370" type="line"/>
      <point x="366" y="676" type="line"/>
      <point x="324" y="676" type="line"/>
      <point x="244" y="544" type="line"/>
      <point x="196" y="456" type="line"/>
      <point x="192" y="456" type="line"/>
      <point x="178" y="544" type="line"/>
      <point x="154" y="676" type="line"/>
      <point x="112" y="676" type="line"/>
    </contour>
  </outline>
</glyph>
<glyph name="daggerdbl" format="1">
  <advance width="392"/>
  <outline>
    <contour>
      <point x="24" y="68" type="line"/>
      <point x="146" y="70" type="line"/>
      <point x="116" y="-80" type="line"/>
      <point x="146" y="-80" type="line"/>
      <point x="174" y="70" type="line"/>
      <point x="296" y="68" type="line"/>
      <point x="302" y="98" type="line"/>
      <point x="178" y="96" type="line"/>
      <point x="224" y="316" type="line"/>
      <point x="266" y="536" type="line"/>
      <point x="388" y="534" type="line"/>
      <point x="394" y="564" type="line"/>
      <point x="272" y="562" type="line"/>
      <point x="302" y="712" type="line"/>
      <point x="272" y="712" type="line"/>
      <point x="244" y="562" type="line"/>
      <point x="122" y="564" type="line"/>
      <point x="116" y="534" type="line"/>
      <point x="240" y="536" type="line"/>
      <point x="194" y="316" type="line"/>
      <point x="152" y="96" type="line"/>
      <point x="30" y="98" type="line"/>
    </contour>
  </outline>
</glyph>
<glyph name="dblgravecmb" format="1">
  <advance width="0"/>
  <outline>
    <contour>
      <point x="10" y="706" type="line"/>
      <point x="-22" y="706" type="line"/>
      <point x="32" y="570" type="line"/>
      <point x="56" y="570" type="line"/>
    </contour>
    <contour>
      <point x="132" y="706" type="line"/>
      <point x="100" y="706" type="line"/>
      <point x="154" y="570" type="line"/>
      <point x="178" y="570" type="line"/>
    </contour>
    <contour>
      <point x="104" y="502" type="move" name="_aboveLC"/>
    </contour>
  </outline>
</glyph>
<glyph name="dblgravecmb.cap" format="1">
  <advance width="0"/>
  <outline>
    <contour>
      <point x="150" y="814" type="line"/>
      <point x="118" y="814" type="line"/>
      <point x="184" y="710" type="line"/>
      <point x="208" y="710" type="line"/>
    </contour>
    <contour>
      <point x="16" y="814" type="line"/>
      <point x="-16" y="814" type="line"/>
      <point x="50" y="710" type="line"/>
      <point x="74" y="710" type="line"/>
    </contour>
    <contour>
      <point x="136" y="682" type="move" name="_aboveUC"/>
    </contour>
  </outline>
</glyph>
<glyph name="de" format="1">
  <advance width="484"/>
  <outline>
    <contour>
      <point x="50" y="164" type="curve" smooth="yes"/>
      <point x="50" y="68"/>
      <point x="112" y="-12"/>
      <point x="200" y="-12" type="curve" smooth="yes"/>
      <point x="383" y="-12"/>
      <point x="474" y="212"/>
      <point x="474" y="484" type="curve" smooth="yes"/>
      <point x="474" y="628"/>
      <point x="408" y="734"/>
      <point x="282" y="734" type="curve" smooth="yes"/>
      <point x="262" y="734"/>
      <point x="242" y="730"/>
      <point x="230" y="723" type="curve"/>
      <point x="244" y="701" type="line"/>
      <point x="252" y="705"/>
      <point x="268" y="708"/>
      <point x="280" y="708" type="curve" smooth="yes"/>
      <point x="388" y="708"/>
      <point x="446" y="610"/>
      <point x="446" y="478" type="curve" smooth="yes"/>
      <point x="446" y="244"/>
      <point x="371" y="14"/>
      <point x="202" y="14" type="curve" smooth="yes"/>
      <point x="126" y="14"/>
      <point x="78" y="86"/>
      <point x="78" y="168" type="curve" smooth="yes"/>
      <point x="78" y="292"/>
      <point x="164" y="414"/>
      <point x="292" y="414" type="curve" smooth="yes"/>
      <point x="358" y="414"/>
      <point x="408" y="356"/>
      <point x="438" y="260" type="curve"/>
      <point x="448" y="292" type="line"/>
      <point x="426" y="370"/>
      <point x="371" y="440"/>
      <point x="294" y="440" type="curve" smooth="yes"/>
      <point x="146" y="440"/>
      <point x="50" y="306"/>
    </contour>
  </outline>
</glyph>
<glyph name="deposeemark" format="1">
  <advance width="574"/>
  <outline>
    <contour>
      <point x="381" y="370" type="line"/>
      <point x="450" y="370" type="line" smooth="yes"/>
      <point x="560" y="370"/>
      <point x="622" y="456"/>
      <point x="622" y="561" type="curve" smooth="yes"/>
      <point x="622" y="630"/>
      <point x="585" y="676"/>
      <point x="511" y="676" type="curve" smooth="yes"/>
      <point x="442" y="676" type="line"/>
    </contour>
    <contour>
      <point x="415" y="397" type="line"/>
      <point x="465" y="649" type="line"/>
      <point x="504" y="649" type="line" smooth="yes"/>
      <point x="564" y="649"/>
      <point x="591" y="611"/>
      <point x="591" y="556" type="curve" smooth="yes"/>
      <point x="591" y="472"/>
      <point x="544" y="397"/>
      <point x="455" y="397" type="curve" smooth="yes"/>
    </contour>
    <contour>
      <point x="50" y="370" type="line"/>
      <point x="78" y="370" type="line"/>
      <point x="112" y="540" type="line"/>
      <point x="128" y="642" type="line"/>
      <point x="132" y="642" type="line"/>
      <point x="174" y="418" type="line"/>
      <point x="200" y="418" type="line"/>
      <point x="330" y="642" type="line"/>
      <point x="334" y="642" type="line"/>
      <point x="310" y="540" type="line"/>
      <point x="276" y="370" type="line"/>
      <point x="304" y="370" type="line"/>
      <point x="366" y="676" type="line"/>
      <point x="324" y="676" type="line"/>
      <point x="244" y="544" type="line"/>
      <point x="196" y="456" type="line"/>
      <point x="192" y="456" type="line"/>
      <point x="178" y="544" type="line"/>
      <point x="154" y="676" type="line"/>
      <point x="112" y="676" type="line"/>
    </contour>
  </outline>
</glyph>
<glyph name="diamondblack" format="1">
  <advance width="262"/>
  <outline>
    <contour>
      <point x="132" y="146" type="line"/>
      <point x="248" y="264" type="line"/>
      <point x="132" y="382" type="line"/>
      <point x="16" y="264" type="line"/>
    </contour>
  </outline>
</glyph>
<glyph name="dieresis" format="1">
  <advance width="504"/>
  <outline>
    <component base="dieresiscmb" xOffset="214"/>
    <contour>
      <point x="318" y="502" type="move" name="_aboveLC"/>
    </contour>
  </outline>
</glyph>
<glyph name="dieresisbelowcmb" format="1">
  <advance width="0"/>
  <outline>
    <contour>
      <point x="-106" y="-188" type="curve" smooth="yes"/>
      <point x="-86" y="-188"/>
      <point x="-74" y="-170"/>
      <point x="-74" y="-152" type="curve" smooth="yes"/>
      <point x="-74" y="-136"/>
      <point x="-84" y="-124"/>
      <point x="-100" y="-124" type="curve" smooth="yes"/>
      <point x="-120" y="-124"/>
      <point x="-132" y="-142"/>
      <point x="-132" y="-160" type="curve" smooth="yes"/>
      <point x="-132" y="-176"/>
      <point x="-122" y="-188"/>
    </contour>
    <contour>
      <point x="40" y="-188" type="curve" smooth="yes"/>
      <point x="60" y="-188"/>
      <point x="74" y="-170"/>
      <point x="74" y="-152" type="curve" smooth="yes"/>
      <point x="74" y="-136"/>
      <point x="62" y="-124"/>
      <point x="48" y="-124" type="curve" smooth="yes"/>
      <point x="28" y="-124"/>
      <point x="14" y="-142"/>
      <point x="14" y="-160" type="curve" smooth="yes"/>
      <point x="14" y="-176"/>
      <point x="26" y="-188"/>
    </contour>
    <contour>
      <point x="-6" y="-30" type="move" name="_belowLC"/>
    </contour>
  </outline>
</glyph>
<glyph name="dieresiscmb" format="1">
  <advance width="0"/>
  <outline>
    <contour>
      <point x="50" y="602" type="curve" smooth="yes"/>
      <point x="66" y="602"/>
      <point x="82" y="618"/>
      <point x="82" y="638" type="curve" smooth="yes"/>
      <point x="82" y="656"/>
      <point x="72" y="666"/>
      <point x="56" y="666" type="curve" smooth="yes"/>
      <point x="40" y="666"/>
      <point x="24" y="650"/>
      <point x="24" y="628" type="curve" smooth="yes"/>
      <point x="24" y="612"/>
      <point x="34" y="602"/>
    </contour>
    <contour>
      <point x="196" y="602" type="curve" smooth="yes"/>
      <point x="212" y="602"/>
      <point x="228" y="618"/>
      <point x="228" y="638" type="curve" smooth="yes"/>
      <point x="228" y="656"/>
      <point x="218" y="666"/>
      <point x="202" y="666" type="curve" smooth="yes"/>
      <point x="186" y="666"/>
      <point x="170" y="650"/>
      <point x="170" y="628" type="curve" smooth="yes"/>
      <point x="170" y="612"/>
      <point x="180" y="602"/>
    </contour>
    <contour>
      <point x="104" y="502" type="move" name="_aboveLC"/>
    </contour>
    <contour>
      <point x="136" y="680" type="move" name="aboveLC"/>
    </contour>
  </outline>
</glyph>
<glyph name="dieresistonoscmb" format="1">
  <advance width="0"/>
  <outline>
    <contour>
      <point x="36" y="606" type="curve" smooth="yes"/>
      <point x="52" y="606"/>
      <point x="68" y="620"/>
      <point x="68" y="640" type="curve" smooth="yes"/>
      <point x="68" y="654"/>
      <point x="58" y="662"/>
      <point x="46" y="662" type="curve" smooth="yes"/>
      <point x="30" y="662"/>
      <point x="14" y="648"/>
      <point x="14" y="628" type="curve" smooth="yes"/>
      <point x="14" y="614"/>
      <point x="24" y="606"/>
    </contour>
    <contour>
      <point x="206" y="606" type="curve" smooth="yes"/>
      <point x="222" y="606"/>
      <point x="238" y="620"/>
      <point x="238" y="640" type="curve" smooth="yes"/>
      <point x="238" y="654"/>
      <point x="228" y="662"/>
      <point x="216" y="662" type="curve" smooth="yes"/>
      <point x="200" y="662"/>
      <point x="184" y="648"/>
      <point x="184" y="628" type="curve" smooth="yes"/>
      <point x="184" y="614"/>
      <point x="194" y="606"/>
    </contour>
    <contour>
      <point x="104" y="562" type="line"/>
      <point x="192" y="724" type="line"/>
      <point x="156" y="724" type="line"/>
      <point x="82" y="562" type="line"/>
    </contour>
    <contour>
      <point x="104" y="502" type="move" name="_aboveLC"/>
    </contour>
  </outline>
</glyph>
<glyph name="digamma" format="1">
  <advance width="382"/>
  <outline>
    <contour>
      <point x="97" y="159" type="curve"/>
      <point x="315" y="159" type="line"/>
      <point x="320" y="185" type="line"/>
      <point x="102" y="185" type="line"/>
      <point x="154" y="452" type="line"/>
      <point x="392" y="452" type="line"/>
      <point x="398" y="478" type="line"/>
      <point x="133" y="478" type="line"/>
      <point x="2" y="-180" type="line"/>
      <point x="29" y="-180" type="line"/>
      <point x="54" y="-59"/>
      <point x="74" y="44"/>
    </contour>
    <contour>
      <point x="193" y="502" type="move" name="aboveLC"/>
    </contour>
  </outline>
</glyph>
<glyph name="dotaccentcmb.cap" format="1">
  <advance width="0"/>
  <outline>
    <contour>
      <point x="130" y="726" type="curve" smooth="yes"/>
      <point x="148" y="726"/>
      <point x="166" y="742"/>
      <point x="166" y="764" type="curve" smooth="yes"/>
      <point x="166" y="782"/>
      <point x="154" y="794"/>
      <point x="138" y="794" type="curve" smooth="yes"/>
      <point x="120" y="794"/>
      <point x="102" y="778"/>
      <point x="102" y="754" type="curve" smooth="yes"/>
      <point x="102" y="738"/>
      <point x="114" y="726"/>
    </contour>
    <contour>
      <point x="136" y="682" type="move" name="_aboveUC"/>
    </contour>
  </outline>
</glyph>
<glyph name="egrave.sups" format="1">
  <advance width="316"/>
  <outline>
    <contour>
      <point x="246" y="646" type="line"/>
      <point x="268" y="646" type="line"/>
      <point x="228" y="736" type="line"/>
      <point x="198" y="736" type="line"/>
    </contour>
    <component base="e.sups" xOffset="2" yOffset="10"/>
  </outline>
</glyph>
<glyph name="el" format="1">
  <advance width="490"/>
  <outline>
    <contour>
      <point x="-40" y="-4" type="line"/>
      <point x="-29" y="-8"/>
      <point x="-18" y="-12"/>
      <point x="0" y="-12" type="curve" smooth="yes"/>
      <point x="86" y="-12"/>
      <point x="138" y="116"/>
      <point x="169" y="234" type="curve" smooth="yes"/>
      <point x="186" y="300"/>
      <point x="204" y="374"/>
      <point x="218" y="452" type="curve"/>
      <point x="412" y="452" type="line"/>
      <point x="320" y="0" type="line"/>
      <point x="348" y="0" type="line"/>
      <point x="444" y="478" type="line"/>
      <point x="196" y="478" type="line"/>
      <point x="182" y="386"/>
      <point x="162" y="306"/>
      <point x="144" y="240" type="curve" smooth="yes"/>
      <point x="113" y="126"/>
      <point x="68" y="16"/>
      <point x="-4" y="16" type="curve" smooth="yes"/>
      <point x="-12" y="16"/>
      <point x="-24" y="20"/>
      <point x="-30" y="22" type="curve"/>
    </contour>
  </outline>
</glyph>
<glyph name="em" format="1">
  <advance width="564"/>
  <outline>
    <contour>
      <point x="44" y="0" type="line"/>
      <point x="71" y="0" type="line"/>
      <point x="131" y="296" type="line" smooth="yes"/>
      <point x="138" y="331"/>
      <point x="145" y="378"/>
      <point x="153" y="424" type="curve"/>
      <point x="156" y="424" type="line"/>
      <point x="163" y="390"/>
      <point x="167" y="361"/>
      <point x="174" y="329" type="curve"/>
      <point x="228" y="48" type="line"/>
      <point x="260" y="48" type="line"/>
      <point x="424" y="329" type="line"/>
      <point x="444" y="361"/>
      <point x="460" y="390"/>
      <point x="480" y="424" type="curve"/>
      <point x="484" y="424" type="line"/>
      <point x="473" y="378"/>
      <point x="461" y="331"/>
      <point x="454" y="296" type="curve" smooth="yes"/>
      <point x="395" y="0" type="line"/>
      <point x="423" y="0" type="line"/>
      <point x="518" y="478" type="line"/>
      <point x="485" y="478" type="line"/>
      <point x="324" y="201" type="line" smooth="yes"/>
      <point x="300" y="161"/>
      <point x="276" y="118"/>
      <point x="250" y="76" type="curve"/>
      <point x="247" y="76" type="line"/>
      <point x="240" y="118"/>
      <point x="233" y="160"/>
      <point x="225" y="201" type="curve" smooth="yes"/>
      <point x="172" y="478" type="line"/>
      <point x="139" y="478" type="line"/>
    </contour>
  </outline>
</glyph>
<glyph name="emdash" format="1">
  <advance width="768"/>
  <outline>
    <contour>
      <point x="36" y="238" type="line"/>
      <point x="726" y="238" type="line"/>
      <point x="732" y="264" type="line"/>
      <point x="42" y="264" type="line"/>
    </contour>
  </outline>
</glyph>
<glyph name="er" format="1">
  <advance width="520"/>
  <outline>
    <component base="p"/>
    <contour>
      <point x="330" y="502" type="move" name="aboveLC"/>
    </contour>
    <contour>
      <point x="20" y="-218" type="move" name="belowLC"/>
    </contour>
  </outline>
</glyph>
<glyph name="es" format="1">
  <advance width="428"/>
  <outline>
    <component base="c"/>
    <contour>
      <point x="302" y="502" type="move" name="aboveLC"/>
    </contour>
    <contour>
      <point x="216" y="-22" type="move" name="belowLC"/>
    </contour>
    <contour>
      <point x="196" y="0" type="move" name="baseLC"/>
    </contour>
  </outline>
</glyph>
<glyph name="eta" format="1">
  <advance width="504"/>
  <outline>
    <contour>
      <point x="44" y="0" type="line"/>
      <point x="72" y="0" type="line"/>
      <point x="138" y="326" type="line"/>
      <point x="234" y="436"/>
      <point x="284" y="464"/>
      <point x="344" y="464" type="curve" smooth="yes"/>
      <point x="386" y="464"/>
      <point x="414" y="430"/>
      <point x="414" y="380" type="curve" smooth="yes"/>
      <point x="414" y="316"/>
      <point x="362" y="90"/>
      <point x="306" y="-180" type="curve"/>
      <point x="334" y="-180" type="line"/>
      <point x="433" y="308" type="line" smooth="yes"/>
      <point x="439" y="338"/>
      <point x="442" y="360"/>
      <point x="442" y="382" type="curve" smooth="yes"/>
      <point x="442" y="448"/>
      <point x="408" y="490"/>
      <point x="346" y="490" type="curve" smooth="yes"/>
      <point x="278" y="490"/>
      <point x="228" y="456"/>
      <point x="146" y="364" type="curve"/>
      <point x="144" y="364" type="line"/>
      <point x="164" y="478" type="line"/>
      <point x="136" y="478" type="line"/>
      <point x="130" y="430"/>
      <point x="124" y="396"/>
      <point x="116" y="358" type="curve" smooth="yes"/>
    </contour>
    <contour>
      <point x="312" y="502" type="move" name="aboveLC"/>
    </contour>
    <contour>
      <point x="57" y="-22" type="move" name="belowLC"/>
    </contour>
  </outline>
</glyph>
<glyph name="eth" format="1">
  <advance width="514"/>
  <outline>
    <contour>
      <point x="50" y="164" type="curve" smooth="yes"/>
      <point x="50" y="68"/>
      <point x="116" y="-12"/>
      <point x="210" y="-12" type="curve" smooth="yes"/>
      <point x="352" y="-12"/>
      <point x="448" y="144"/>
      <point x="448" y="340" type="curve" smooth="yes"/>
      <point x="448" y="532"/>
      <point x="360" y="646"/>
      <point x="242" y="722" type="curve"/>
      <point x="226" y="702" type="line"/>
      <point x="342" y="626"/>
      <point x="420" y="522"/>
      <point x="420" y="334" type="curve" smooth="yes"/>
      <point x="420" y="168"/>
      <point x="338" y="14"/>
      <point x="216" y="14" type="curve" smooth="yes"/>
      <point x="128" y="14"/>
      <point x="78" y="86"/>
      <point x="78" y="168" type="curve" smooth="yes"/>
      <point x="78" y="292"/>
      <point x="160" y="414"/>
      <point x="282" y="414" type="curve" smooth="yes"/>
      <point x="348" y="414"/>
      <point x="392" y="362"/>
      <point x="424" y="310" type="curve"/>
      <point x="432" y="340" type="line"/>
      <point x="396" y="398"/>
      <point x="344" y="440"/>
      <point x="284" y="440" type="curve" smooth="yes"/>
      <point x="142" y="440"/>
      <point x="50" y="306"/>
    </contour>
    <contour>
      <point x="198" y="526" type="line"/>
      <point x="512" y="660" type="line"/>
      <point x="504" y="682" type="line"/>
      <point x="190" y="548" type="line"/>
    </contour>
  </outline>
</glyph>
<glyph name="f_f" format="1">
  <advance width="492"/>
  <outline>
    <contour>
      <point x="76" y="452" type="line"/>
      <point x="520" y="452" type="line"/>
      <point x="526" y="478" type="line"/>
      <point x="145" y="478" type="line"/>
      <point x="80" y="474" type="line"/>
    </contour>
    <contour>
      <point x="48" y="0" type="line"/>
      <point x="76" y="0" type="line"/>
      <point x="194" y="588" type="line"/>
      <point x="207" y="646"/>
      <point x="243" y="698"/>
      <point x="298" y="698" type="curve" smooth="yes"/>
      <point x="330" y="698"/>
      <point x="347" y="690"/>
      <point x="366" y="680" type="curve"/>
      <point x="380" y="704" type="line"/>
      <point x="357" y="714"/>
      <point x="337" y="724"/>
      <point x="300" y="724" type="curve" smooth="yes"/>
      <point x="239" y="724"/>
      <point x="188" y="682"/>
      <point x="166" y="588" type="curve"/>
    </contour>
    <contour>
      <point x="294" y="0" type="line"/>
      <point x="322" y="0" type="line"/>
      <point x="442" y="598" type="line" smooth="yes"/>
      <point x="454" y="656"/>
      <point x="486" y="708"/>
      <point x="536" y="708" type="curve" smooth="yes"/>
      <point x="562" y="708"/>
      <point x="578" y="700"/>
      <point x="594" y="690" type="curve"/>
      <point x="608" y="714" type="line"/>
      <point x="588" y="724"/>
      <point x="570" y="734"/>
      <point x="538" y="734" type="curve" smooth="yes"/>
      <point x="482" y="734"/>
      <point x="434" y="692"/>
      <point x="414" y="598" type="curve"/>
    </contour>
  </outline>
</glyph>
<glyph name="fisheye" format="1">
  <advance width="392"/>
  <outline>
    <contour>
      <point x="196" y="124" type="curve" smooth="yes"/>
      <point x="134" y="124"/>
      <point x="70" y="172"/>
      <point x="70" y="264" type="curve" smooth="yes"/>
      <point x="70" y="356"/>
      <point x="134" y="404"/>
      <point x="196" y="404" type="curve" smooth="yes"/>
      <point x="258" y="404"/>
      <point x="322" y="356"/>
      <point x="322" y="264" type="curve" smooth="yes"/>
      <point x="322" y="172"/>
      <point x="258" y="124"/>
    </contour>
    <contour>
      <point x="196" y="212" type="curve" smooth="yes"/>
      <point x="220" y="212"/>
      <point x="244" y="232"/>
      <point x="244" y="264" type="curve" smooth="yes"/>
      <point x="244" y="296"/>
      <point x="220" y="316"/>
      <point x="196" y="316" type="curve" smooth="yes"/>
      <point x="172" y="316"/>
      <point x="148" y="296"/>
      <point x="148" y="264" type="curve" smooth="yes"/>
      <point x="148" y="232"/>
      <point x="172" y="212"/>
    </contour>
    <contour>
      <point x="196" y="96" type="curve" smooth="yes"/>
      <point x="276" y="96"/>
      <point x="352" y="158"/>
      <point x="352" y="264" type="curve" smooth="yes"/>
      <point x="352" y="370"/>
      <point x="276" y="432"/>
      <point x="196" y="432" type="curve" smooth="yes"/>
      <point x="116" y="432"/>
      <point x="40" y="370"/>
      <point x="40" y="264" type="curve" smooth="yes"/>
      <point x="40" y="158"/>
      <point x="116" y="96"/>
    </contour>
  </outline>
</glyph>
<glyph name="floorleft" format="1">
  <advance width="262"/>
  <outline>
    <contour>
      <point x="178" y="640" type="line"/>
      <point x="38" y="-48" type="line"/>
      <point x="184" y="-48" type="line"/>
      <point x="188" y="-26" type="line"/>
      <point x="66" y="-26" type="line"/>
      <point x="200" y="640" type="line"/>
    </contour>
  </outline>
</glyph>
<glyph name="floorright" format="1">
  <advance width="262"/>
  <outline>
    <contour>
      <point x="216" y="640" type="line"/>
      <point x="84" y="-26" type="line"/>
      <point x="-38" y="-26" type="line"/>
      <point x="-42" y="-48" type="line"/>
      <point x="104" y="-48" type="line"/>
      <point x="240" y="640" type="line"/>
    </contour>
  </outline>
</glyph>
<glyph name="fraction" format="1">
  <advance width="76"/>
  <outline>
    <contour>
      <point x="-178" y="-12" type="line"/>
      <point x="314" y="672" type="line"/>
      <point x="284" y="672" type="line"/>
      <point x="-208" y="-12" type="line"/>
    </contour>
  </outline>
</glyph>
<glyph name="gravecmb" format="1">
  <advance width="0"/>
  <outline>
    <contour>
      <point x="136" y="570" type="line"/>
      <point x="160" y="570" type="line"/>
      <point x="100" y="704" type="line"/>
      <point x="66" y="704" type="line"/>
    </contour>
    <contour>
      <point x="104" y="502" type="move" name="_aboveLC"/>
    </contour>
  </outline>
</glyph>
<glyph name="gravecmb.cap" format="1">
  <advance width="0"/>
  <outline>
    <contour>
      <point x="130" y="710" type="line"/>
      <point x="156" y="710" type="line"/>
      <point x="78" y="812" type="line"/>
      <point x="44" y="812" type="line"/>
    </contour>
    <contour>
      <point x="136" y="682" type="move" name="_aboveUC"/>
    </contour>
  </outline>
</glyph>
<glyph name="guilsinglleft" format="1">
  <advance width="236"/>
  <outline>
    <contour>
      <point x="142" y="74" type="line"/>
      <point x="162" y="86" type="line"/>
      <point x="72" y="252" type="line"/>
      <point x="220" y="412" type="line"/>
      <point x="204" y="428" type="line"/>
      <point x="46" y="272" type="line"/>
      <point x="40" y="240" type="line"/>
    </contour>
  </outline>
</glyph>
<glyph name="ha" format="1">
  <advance width="380"/>
  <outline>
    <component base="x"/>
    <contour>
      <point x="252" y="504" type="move" name="aboveLC"/>
    </contour>
    <contour>
      <point x="152" y="-22" type="move" name="belowLC"/>
    </contour>
  </outline>
</glyph>
<glyph name="hard" format="1">
  <advance width="548"/>
  <outline>
    <contour>
      <point x="265" y="478" type="line"/>
      <point x="66" y="478" type="line"/>
      <point x="60" y="452" type="line"/>
      <point x="253" y="452" type="line"/>
    </contour>
    <contour>
      <point x="332" y="-12" type="curve" smooth="yes"/>
      <point x="420" y="-12"/>
      <point x="488" y="60"/>
      <point x="488" y="152" type="curve" smooth="yes"/>
      <point x="488" y="218"/>
      <point x="442" y="278"/>
      <point x="351" y="278" type="curve" smooth="yes"/>
      <point x="314" y="278"/>
      <point x="276" y="268"/>
      <point x="228" y="238" type="curve"/>
      <point x="276" y="478" type="line"/>
      <point x="248" y="478" type="line"/>
      <point x="186" y="172" type="line" smooth="yes"/>
      <point x="184" y="160"/>
      <point x="182" y="146"/>
      <point x="182" y="132" type="curve" smooth="yes"/>
      <point x="182" y="46"/>
      <point x="246" y="-12"/>
    </contour>
    <contour>
      <point x="334" y="14" type="curve" smooth="yes"/>
      <point x="266" y="14"/>
      <point x="210" y="58"/>
      <point x="210" y="138" type="curve" smooth="yes"/>
      <point x="210" y="150"/>
      <point x="214" y="172"/>
      <point x="222" y="210" type="curve"/>
      <point x="272" y="242"/>
      <point x="308" y="252"/>
      <point x="349" y="252" type="curve" smooth="yes"/>
      <point x="422" y="252"/>
      <point x="460" y="206"/>
      <point x="460" y="146" type="curve" smooth="yes"/>
      <point x="460" y="70"/>
      <point x="400" y="14"/>
    </contour>
  </outline>
</glyph>
<glyph name="horncmb" format="1">
  <advance width="0"/>
  <outline>
    <contour>
      <point x="188" y="574" type="line"/>
      <point x="192" y="560"/>
      <point x="192" y="554"/>
      <point x="192" y="544" type="curve" smooth="yes"/>
      <point x="192" y="496"/>
      <point x="138" y="468"/>
      <point x="80" y="468" type="curve"/>
      <point x="82" y="444" type="line"/>
      <point x="170" y="444"/>
      <point x="222" y="494"/>
      <point x="222" y="550" type="curve" smooth="yes"/>
      <point x="222" y="562"/>
      <point x="220" y="572"/>
      <point x="214" y="586" type="curve"/>
    </contour>
    <contour>
      <point x="94" y="478" type="move" name="_hornLC"/>
    </contour>
  </outline>
</glyph>
<glyph name="hungarumlaut" format="1">
  <advance width="504"/>
  <outline>
    <component base="hungarumlautcmb" xOffset="214"/>
    <contour>
      <point x="318" y="502" type="move" name="_aboveLC"/>
    </contour>
  </outline>
</glyph>
<glyph name="hungarumlautcmb.cap" format="1">
  <advance width="0"/>
  <outline>
    <contour>
      <point x="40" y="710" type="line"/>
      <point x="66" y="710" type="line"/>
      <point x="164" y="814" type="line"/>
      <point x="130" y="814" type="line"/>
    </contour>
    <contour>
      <point x="172" y="710" type="line"/>
      <point x="198" y="710" type="line"/>
      <point x="296" y="814" type="line"/>
      <point x="262" y="814" type="line"/>
    </contour>
    <contour>
      <point x="136" y="682" type="move" name="_aboveUC"/>
    </contour>
  </outline>
</glyph>
<glyph name="i.sups" format="1">
  <advance width="150"/>
  <outline>
    <contour>
      <point x="66" y="270" type="line"/>
      <point x="92" y="270" type="line"/>
      <point x="154" y="586" type="line"/>
      <point x="128" y="586" type="line"/>
    </contour>
    <contour>
      <point x="158" y="662" type="curve" smooth="yes"/>
      <point x="174" y="662"/>
      <point x="186" y="676"/>
      <point x="186" y="692" type="curve" smooth="yes"/>
      <point x="186" y="706"/>
      <point x="176" y="716"/>
      <point x="164" y="716" type="curve" smooth="yes"/>
      <point x="148" y="716"/>
      <point x="136" y="702"/>
      <point x="136" y="686" type="curve" smooth="yes"/>
      <point x="136" y="672"/>
      <point x="146" y="662"/>
    </contour>
  </outline>
</glyph>
<glyph name="ie" format="1">
  <advance width="468"/>
  <outline>
    <component base="e"/>
    <contour>
      <point x="294" y="502" type="move" name="aboveLC"/>
    </contour>
    <contour>
      <point x="212" y="-22" type="move" name="belowLC"/>
    </contour>
    <contour>
      <point x="282" y="0" type="move" name="ogonekLC"/>
    </contour>
  </outline>
</glyph>
<glyph name="iterrobang" format="1">
  <advance width="376"/>
  <outline>
    <contour>
      <point x="126" y="-12" type="curve" smooth="yes"/>
      <point x="148" y="-12"/>
      <point x="166" y="10"/>
      <point x="166" y="32" type="curve" smooth="yes"/>
      <point x="166" y="50"/>
      <point x="158" y="64"/>
      <point x="140" y="64" type="curve" smooth="yes"/>
      <point x="118" y="64"/>
      <point x="98" y="40"/>
      <point x="98" y="18" type="curve" smooth="yes"/>
      <point x="98" y="2"/>
      <point x="108" y="-12"/>
    </contour>
    <contour>
      <point x="148" y="176" type="line"/>
      <point x="170" y="174" type="line"/>
      <point x="184" y="345"/>
      <point x="386" y="388"/>
      <point x="386" y="554" type="curve" smooth="yes"/>
      <point x="386" y="625"/>
      <point x="346" y="682"/>
      <point x="261" y="682" type="curve" smooth="yes"/>
      <point x="200" y="682"/>
      <point x="151" y="656"/>
      <point x="110" y="614" type="curve"/>
      <point x="128" y="594" type="line"/>
      <point x="166" y="636"/>
      <point x="214" y="656"/>
      <point x="254" y="656" type="curve" smooth="yes"/>
      <point x="330" y="656"/>
      <point x="358" y="604"/>
      <point x="358" y="548" type="curve" smooth="yes"/>
      <point x="358" y="444"/>
      <point x="257" y="388"/>
      <point x="194" y="301" type="curve"/>
      <point x="236" y="490" type="line" smooth="yes"/>
      <point x="240" y="511"/>
      <point x="244" y="531"/>
      <point x="248" y="552" type="curve"/>
      <point x="220" y="552" type="line"/>
    </contour>
  </outline>
</glyph>
<glyph name="iukran" format="1">
  <advance width="214"/>
  <outline>
    <component base="i"/>
    <contour>
      <point x="44" y="0" type="move" name="ogonekLC"/>
    </contour>
  </outline>
</glyph>
<glyph name="je" format="1">
  <advance width="214"/>
  <outline>
    <component base="j"/>
    <contour>
      <point x="198" y="678" type="move" name="aboveLC"/>
    </contour>
    <contour>
      <point x="-44" y="-230" type="move" name="belowLC"/>
    </contour>
  </outline>
</glyph>
<glyph name="ka" format="1">
  <advance width="440"/>
  <outline>
    <contour>
      <point x="44" y="0" type="line"/>
      <point x="72" y="0" type="line"/>
      <point x="120" y="238" type="line"/>
      <point x="244" y="238" type="line"/>
      <point x="346" y="0" type="line"/>
      <point x="374" y="0" type="line"/>
      <point x="268" y="250" type="line"/>
      <point x="462" y="478" type="line"/>
      <point x="428" y="478" type="line"/>
      <point x="244" y="264" type="line"/>
      <point x="125" y="264" type="line"/>
      <point x="168" y="478" type="line"/>
      <point x="140" y="478" type="line"/>
    </contour>
    <contour>
      <point x="306" y="502" type="move" name="aboveLC"/>
    </contour>
  </outline>
</glyph>
<glyph name="kappa" format="1">
  <advance width="440"/>
  <outline>
    <contour>
      <point x="246" y="309" type="line"/>
      <point x="262" y="198"/>
      <point x="318" y="50"/>
      <point x="354" y="-6" type="curve"/>
      <point x="382" y="0" type="line"/>
      <point x="340" y="56"/>
      <point x="282" y="209"/>
      <point x="268" y="326" type="curve"/>
    </contour>
    <contour>
      <point x="44" y="0" type="line"/>
      <point x="70" y="0" type="line"/>
      <point x="76" y="32" type="line" smooth="yes"/>
      <point x="86" y="86"/>
      <point x="103" y="131"/>
      <point x="134" y="172" type="curve" smooth="yes"/>
      <point x="248" y="322"/>
      <point x="370" y="416"/>
      <point x="458" y="452" type="curve"/>
      <point x="450" y="480" type="line"/>
      <point x="358" y="436"/>
      <point x="216" y="330"/>
      <point x="110" y="176" type="curve"/>
      <point x="106" y="176" type="line"/>
      <point x="146" y="374" type="line" smooth="yes"/>
      <point x="154" y="414"/>
      <point x="160" y="456"/>
      <point x="160" y="478" type="curve"/>
      <point x="132" y="478" type="line"/>
      <point x="132" y="442"/>
      <point x="124" y="398"/>
      <point x="116" y="360" type="curve" smooth="yes"/>
    </contour>
  </outline>
</glyph>
<glyph name="l.alt" format="1">
  <advance width="216"/>
  <outline>
    <contour>
      <point x="44" y="0" type="line"/>
      <point x="72" y="0" type="line"/>
      <point x="216" y="722" type="line"/>
      <point x="188" y="722" type="line"/>
    </contour>
    <contour>
      <point x="206" y="730" type="move" name="aboveLC"/>
    </contour>
    <contour>
      <point x="60" y="-22" type="move" name="belowLC"/>
    </contour>
  </outline>
</glyph>
<glyph name="lessequal" format="1">
  <advance width="456"/>
  <outline>
    <contour>
      <point x="436" y="0" type="line"/>
      <point x="436" y="26" type="line"/>
      <point x="48" y="26" type="line"/>
      <point x="48" y="0" type="line"/>
    </contour>
    <contour>
      <point x="46" y="316" type="line"/>
      <point x="436" y="156" type="line"/>
      <point x="436" y="184" type="line"/>
      <point x="206" y="278" type="line"/>
      <point x="84" y="328" type="line"/>
      <point x="84" y="332" type="line"/>
      <point x="206" y="382" type="line"/>
      <point x="436" y="476" type="line"/>
      <point x="436" y="504" type="line"/>
      <point x="46" y="344" type="line"/>
    </contour>
  </outline>
</glyph>
<glyph name="litre" format="1">
  <advance width="348"/>
  <outline>
    <contour>
      <point x="18" y="136" type="line"/>
      <point x="194" y="238"/>
      <point x="384" y="467"/>
      <point x="384" y="628" type="curve" smooth="yes"/>
      <point x="384" y="690"/>
      <point x="354" y="734"/>
      <point x="302" y="734" type="curve" smooth="yes"/>
      <point x="244" y="734"/>
      <point x="186" y="678"/>
      <point x="158" y="534" type="curve" smooth="yes"/>
      <point x="84" y="160" type="line" smooth="yes"/>
      <point x="62" y="50"/>
      <point x="110" y="-12"/>
      <point x="182" y="-12" type="curve" smooth="yes"/>
      <point x="234" y="-12"/>
      <point x="274" y="14"/>
      <point x="306" y="40" type="curve"/>
      <point x="294" y="60" type="line"/>
      <point x="262" y="38"/>
      <point x="230" y="14"/>
      <point x="184" y="14" type="curve" smooth="yes"/>
      <point x="126" y="14"/>
      <point x="90" y="58"/>
      <point x="118" y="190" type="curve" smooth="yes"/>
      <point x="188" y="546" type="line" smooth="yes"/>
      <point x="210" y="654"/>
      <point x="262" y="708"/>
      <point x="300" y="708" type="curve" smooth="yes"/>
      <point x="334" y="708"/>
      <point x="356" y="682"/>
      <point x="356" y="622" type="curve" smooth="yes"/>
      <point x="356" y="479"/>
      <point x="172" y="256"/>
      <point x="10" y="162" type="curve"/>
    </contour>
  </outline>
</glyph>
<glyph name="lje" format="1">
  <advance width="723"/>
  <outline>
    <contour>
      <point x="-40" y="-4" type="line"/>
      <point x="-29" y="-8"/>
      <point x="-18" y="-12"/>
      <point x="0" y="-12" type="curve" smooth="yes"/>
      <point x="86" y="-12"/>
      <point x="138" y="116"/>
      <point x="169" y="234" type="curve" smooth="yes"/>
      <point x="186" y="300"/>
      <point x="204" y="374"/>
      <point x="218" y="452" type="curve"/>
      <point x="412" y="452" type="line"/>
      <point x="444" y="478" type="line"/>
      <point x="196" y="478" type="line"/>
      <point x="182" y="386"/>
      <point x="162" y="306"/>
      <point x="144" y="240" type="curve" smooth="yes"/>
      <point x="113" y="126"/>
      <point x="68" y="16"/>
      <point x="-4" y="16" type="curve" smooth="yes"/>
      <point x="-12" y="16"/>
      <point x="-24" y="20"/>
      <point x="-30" y="22" type="curve"/>
    </contour>
    <contour>
      <point x="500" y="-12" type="curve" smooth="yes"/>
      <point x="588" y="-12"/>
      <point x="656" y="60"/>
      <point x="656" y="152" type="curve" smooth="yes"/>
      <point x="656" y="218"/>
      <point x="610" y="278"/>
      <point x="519" y="278" type="curve" smooth="yes"/>
      <point x="482" y="278"/>
      <point x="444" y="268"/>
      <point x="396" y="238" type="curve"/>
      <point x="444" y="478" type="line"/>
      <point x="416" y="478" type="line"/>
      <point x="354" y="172" type="line" smooth="yes"/>
      <point x="352" y="160"/>
      <point x="350" y="146"/>
      <point x="350" y="132" type="curve" smooth="yes"/>
      <point x="350" y="46"/>
      <point x="414" y="-12"/>
    </contour>
    <contour>
      <point x="502" y="14" type="curve" smooth="yes"/>
      <point x="434" y="14"/>
      <point x="378" y="58"/>
      <point x="378" y="138" type="curve" smooth="yes"/>
      <point x="378" y="150"/>
      <point x="382" y="172"/>
      <point x="390" y="210" type="curve"/>
      <point x="440" y="242"/>
      <point x="476" y="252"/>
      <point x="517" y="252" type="curve" smooth="yes"/>
      <point x="590" y="252"/>
      <point x="628" y="206"/>
      <point x="628" y="146" type="curve" smooth="yes"/>
      <point x="628" y="70"/>
      <point x="568" y="14"/>
    </contour>
  </outline>
</glyph>
<glyph name="lownumeralsign" format="1">
  <advance width="198"/>
  <outline>
    <contour>
      <point x="103" y="194" type="line"/>
      <point x="85" y="194" type="line"/>
      <point x="36" y="62" type="line"/>
      <point x="16" y="0" type="line"/>
      <point x="41" y="0" type="line"/>
    </contour>
  </outline>
</glyph>
<glyph name="macron" format="1">
  <advance width="504"/>
  <outline>
    <component base="macroncmb" xOffset="214"/>
    <contour>
      <point x="318" y="502" type="move" name="_aboveLC"/>
    </contour>
  </outline>
</glyph>
<glyph name="macronacute" format="1">
  <advance width="0"/>
  <outline>
    <contour>
      <point x="66" y="706" type="line"/>
      <point x="94" y="706" type="line"/>
      <point x="190" y="800" type="line"/>
      <point x="152" y="800" type="line"/>
    </contour>
    <contour>
      <point x="-26" y="608" type="line"/>
      <point x="186" y="608" type="line"/>
      <point x="190" y="634" type="line"/>
      <point x="-22" y="634" type="line"/>
    </contour>
    <contour>
      <point x="62" y="502" type="move" name="_aboveLC"/>
    </contour>
  </outline>
</glyph>
<glyph name="macronacute.cap" format="1">
  <advance width="0"/>
  <outline>
    <contour>
      <point x="44" y="826" type="line"/>
      <point x="72" y="826" type="line"/>
      <point x="190" y="928" type="line"/>
      <point x="154" y="928" type="line"/>
    </contour>
    <contour>
      <point x="-46" y="736" type="line"/>
      <point x="164" y="736" type="line"/>
      <point x="170" y="762" type="line"/>
      <point x="-40" y="762" type="line"/>
    </contour>
    <contour>
      <point x="62" y="682" type="move" name="_aboveUC"/>
    </contour>
  </outline>
</glyph>
<glyph name="macronbelowcmb" format="1">
  <advance width="0"/>
  <outline>
    <contour>
      <point x="-136" y="-162" type="line"/>
      <point x="76" y="-162" type="line"/>
      <point x="80" y="-136" type="line"/>
      <point x="-132" y="-136" type="line"/>
    </contour>
    <contour>
      <point x="-6" y="-30" type="move" name="_belowLC"/>
    </contour>
  </outline>
</glyph>
<glyph name="macroncmb" format="1">
  <advance width="0"/>
  <outline>
    <contour>
      <point x="14" y="608" type="line"/>
      <point x="226" y="608" type="line"/>
      <point x="230" y="634" type="line"/>
      <point x="18" y="634" type="line"/>
    </contour>
    <contour>
      <point x="104" y="502" type="move" name="_aboveLC"/>
    </contour>
  </outline>
</glyph>
<glyph name="nje" format="1">
  <advance width="741"/>
  <outline>
    <contour>
      <point x="44" y="0" type="line"/>
      <point x="72" y="0" type="line"/>
      <point x="120" y="238" type="line"/>
      <point x="392" y="238" type="line"/>
      <point x="398" y="264" type="line"/>
      <point x="126" y="264" type="line"/>
      <point x="168" y="478" type="line"/>
      <point x="140" y="478" type="line"/>
    </contour>
    <contour>
      <point x="524" y="-12" type="curve" smooth="yes"/>
      <point x="612" y="-12"/>
      <point x="680" y="60"/>
      <point x="680" y="152" type="curve" smooth="yes"/>
      <point x="680" y="218"/>
      <point x="634" y="278"/>
      <point x="543" y="278" type="curve" smooth="yes"/>
      <point x="506" y="278"/>
      <point x="468" y="268"/>
      <point x="420" y="238" type="curve"/>
      <point x="468" y="478" type="line"/>
      <point x="440" y="478" type="line"/>
      <point x="378" y="172" type="line" smooth="yes"/>
      <point x="376" y="160"/>
      <point x="374" y="146"/>
      <point x="374" y="132" type="curve" smooth="yes"/>
      <point x="374" y="46"/>
      <point x="438" y="-12"/>
    </contour>
    <contour>
      <point x="526" y="14" type="curve" smooth="yes"/>
      <point x="458" y="14"/>
      <point x="402" y="58"/>
      <point x="402" y="138" type="curve" smooth="yes"/>
      <point x="402" y="150"/>
      <point x="406" y="172"/>
      <point x="414" y="210" type="curve"/>
      <point x="464" y="242"/>
      <point x="500" y="252"/>
      <point x="541" y="252" type="curve" smooth="yes"/>
      <point x="614" y="252"/>
      <point x="652" y="206"/>
      <point x="652" y="146" type="curve" smooth="yes"/>
      <point x="652" y="70"/>
      <point x="592" y="14"/>
    </contour>
  </outline>
</glyph>
<glyph name="nu" format="1">
  <advance width="415"/>
  <outline>
    <contour>
      <point x="114" y="0" type="curve"/>
      <point x="148" y="-4" type="line"/>
      <point x="284" y="154"/>
      <point x="380" y="312"/>
      <point x="430" y="478" type="curve"/>
      <point x="404" y="482" type="line"/>
      <point x="364" y="332"/>
      <point x="262" y="160"/>
      <point x="144" y="26" type="curve"/>
      <point x="140" y="26" type="line"/>
      <point x="156" y="180"/>
      <point x="132" y="368"/>
      <point x="74" y="490" type="curve"/>
      <point x="48" y="482" type="line"/>
      <point x="110" y="350"/>
      <point x="132" y="174"/>
    </contour>
  </outline>
</glyph>
<glyph name="numeralsign" format="1">
  <advance width="198"/>
  <outline>
    <contour>
      <point x="124" y="501" type="line"/>
      <point x="142" y="501" type="line"/>
      <point x="191" y="632" type="line"/>
      <point x="211" y="694" type="line"/>
      <point x="186" y="694" type="line"/>
    </contour>
  </outline>
</glyph>
<glyph name="o" format="1">
  <advance width="500"/>
  <outline>
    <contour>
      <point x="208" y="-12" type="curve" smooth="yes"/>
      <point x="338" y="-12"/>
      <point x="452" y="126"/>
      <point x="452" y="304" type="curve" smooth="yes"/>
      <point x="452" y="424"/>
      <point x="390" y="490"/>
      <point x="292" y="490" type="curve" smooth="yes"/>
      <point x="162" y="490"/>
      <point x="48" y="352"/>
      <point x="48" y="174" type="curve" smooth="yes"/>
      <point x="48" y="54"/>
      <point x="110" y="-12"/>
    </contour>
    <contour>
      <point x="290" y="464" type="curve" smooth="yes"/>
      <point x="372" y="464"/>
      <point x="424" y="408"/>
      <point x="424" y="298" type="curve" smooth="yes"/>
      <point x="424" y="146"/>
      <point x="318" y="14"/>
      <point x="210" y="14" type="curve" smooth="yes"/>
      <point x="128" y="14"/>
      <point x="76" y="70"/>
      <point x="76" y="180" type="curve" smooth="yes"/>
      <point x="76" y="332"/>
      <point x="182" y="464"/>
    </contour>
    <contour>
      <point x="318" y="502" type="move" name="aboveLC"/>
    </contour>
    <contour>
      <point x="188" y="-22" type="move" name="belowLC"/>
    </contour>
    <contour>
      <point x="390" y="478" type="move" name="hornLC"/>
    </contour>
    <contour>
      <point x="214" y="0" type="move" name="ogonekLC"/>
    </contour>
  </outline>
</glyph>
<glyph name="o.sups" format="1">
  <advance width="340"/>
  <outline>
    <contour>
      <point x="172" y="262" type="curve" smooth="yes"/>
      <point x="256" y="262"/>
      <point x="344" y="344"/>
      <point x="344" y="470" type="curve" smooth="yes"/>
      <point x="344" y="548"/>
      <point x="304" y="594"/>
      <point x="236" y="594" type="curve" smooth="yes"/>
      <point x="152" y="594"/>
      <point x="64" y="512"/>
      <point x="64" y="386" type="curve" smooth="yes"/>
      <point x="64" y="308"/>
      <point x="104" y="262"/>
    </contour>
    <contour>
      <point x="234" y="570" type="curve" smooth="yes"/>
      <point x="288" y="570"/>
      <point x="318" y="532"/>
      <point x="318" y="466" type="curve" smooth="yes"/>
      <point x="318" y="370"/>
      <point x="248" y="286"/>
      <point x="174" y="286" type="curve" smooth="yes"/>
      <point x="120" y="286"/>
      <point x="90" y="324"/>
      <point x="90" y="390" type="curve" smooth="yes"/>
      <point x="90" y="486"/>
      <point x="160" y="570"/>
    </contour>
  </outline>
</glyph>
<glyph name="ocyr" format="1">
  <advance width="500"/>
  <outline>
    <component base="o" xOffset="4"/>
    <contour>
      <point x="318" y="502" type="move" name="aboveLC"/>
    </contour>
    <contour>
      <point x="188" y="-22" type="move" name="belowLC"/>
    </contour>
    <contour>
      <point x="390" y="478" type="move" name="hornLC"/>
    </contour>
    <contour>
      <point x="214" y="0" type="move" name="ogonekLC"/>
    </contour>
  </outline>
</glyph>
<glyph name="ogonek" format="1">
  <advance width="504"/>
  <outline>
    <component base="ogonekcmb" xOffset="214"/>
    <contour>
      <point x="214" y="0" type="move" name="_ogonekLC"/>
    </contour>
  </outline>
</glyph>
<glyph name="ogonekcmb" format="1">
  <advance width="0"/>
  <outline>
    <contour>
      <point x="-96" y="-140" type="curve" smooth="yes"/>
      <point x="-96" y="-182"/>
      <point x="-68" y="-202"/>
      <point x="-30" y="-202" type="curve" smooth="yes"/>
      <point x="-14" y="-202"/>
      <point x="6" y="-196"/>
      <point x="24" y="-186" type="curve"/>
      <point x="14" y="-164" type="line"/>
      <point x="0" y="-172"/>
      <point x="-12" y="-176"/>
      <point x="-28" y="-176" type="curve" smooth="yes"/>
      <point x="-50" y="-176"/>
      <point x="-66" y="-160"/>
      <point x="-66" y="-134" type="curve" smooth="yes"/>
      <point x="-66" y="-88"/>
      <point x="-24" y="-36"/>
      <point x="36" y="4" type="curve"/>
      <point x="2" y="4" type="line"/>
      <point x="-48" y="-30"/>
      <point x="-96" y="-88"/>
    </contour>
    <contour>
      <point x="0" y="0" type="move" name="_ogonekLC"/>
    </contour>
  </outline>
</glyph>
<glyph name="ohornacute" format="1">
  <advance width="500"/>
  <outline>
    <contour>
      <point x="480" y="574" type="line"/>
      <point x="484" y="560"/>
      <point x="484" y="554"/>
      <point x="484" y="544" type="curve" smooth="yes"/>
      <point x="484" y="496"/>
      <point x="434" y="469"/>
      <point x="374" y="468" type="curve"/>
      <point x="396" y="445" type="line"/>
      <point x="474" y="454"/>
      <point x="514" y="498"/>
      <point x="514" y="550" type="curve" smooth="yes"/>
      <point x="514" y="562"/>
      <point x="512" y="572"/>
      <point x="506" y="586" type="curve"/>
    </contour>
    <component base="o"/>
    <component base="acutecmb" xOffset="209"/>
  </outline>
</glyph>
<glyph name="omega" format="1">
  <advance width="630"/>
  <outline>
    <contour>
      <point x="162" y="-12" type="curve" smooth="yes"/>
      <point x="218" y="-12"/>
      <point x="262" y="20"/>
      <point x="289" y="76" type="curve"/>
      <point x="293" y="76" type="line"/>
      <point x="303" y="20"/>
      <point x="344" y="-12"/>
      <point x="396" y="-12" type="curve" smooth="yes"/>
      <point x="490" y="-12"/>
      <point x="580" y="80"/>
      <point x="580" y="260" type="curve" smooth="yes"/>
      <point x="580" y="349"/>
      <point x="556" y="422"/>
      <point x="522" y="490" type="curve"/>
      <point x="496" y="474" type="line"/>
      <point x="530" y="407"/>
      <point x="552" y="339"/>
      <point x="552" y="258" type="curve" smooth="yes"/>
      <point x="552" y="100"/>
      <point x="479" y="14"/>
      <point x="398" y="14" type="curve" smooth="yes"/>
      <point x="352" y="14"/>
      <point x="316" y="38"/>
      <point x="316" y="117" type="curve" smooth="yes"/>
      <point x="316" y="172"/>
      <point x="336" y="234"/>
      <point x="352" y="290" type="curve"/>
      <point x="318" y="290" type="line"/>
      <point x="314" y="250"/>
      <point x="304" y="206"/>
      <point x="292" y="166" type="curve" smooth="yes"/>
      <point x="263" y="71"/>
      <point x="230" y="14"/>
      <point x="164" y="14" type="curve" smooth="yes"/>
      <point x="108" y="14"/>
      <point x="72" y="68"/>
      <point x="72" y="170" type="curve" smooth="yes"/>
      <point x="72" y="262"/>
      <point x="121" y="374"/>
      <point x="212" y="470" type="curve"/>
      <point x="192" y="490" type="line"/>
      <point x="106" y="391"/>
      <point x="44" y="282"/>
      <point x="44" y="164" type="curve" smooth="yes"/>
      <point x="44" y="44"/>
      <point x="96" y="-12"/>
    </contour>
    <contour>
      <point x="344" y="502" type="move" name="aboveLC"/>
    </contour>
    <contour>
      <point x="282" y="-22" type="move" name="belowLC"/>
    </contour>
  </outline>
</glyph>
<glyph name="one.onum" format="1">
  <advance width="316"/>
  <outline>
    <contour>
      <point x="96" y="0" type="line"/>
      <point x="124" y="0" type="line"/>
      <point x="240" y="570" type="line"/>
      <point x="216" y="570" type="line"/>
      <point x="186" y="552"/>
      <point x="140" y="538"/>
      <point x="92" y="532" type="curve"/>
      <point x="88" y="512" type="line"/>
      <point x="200" y="512" type="line"/>
    </contour>
  </outline>
</glyph>
<glyph name="one.pnum" format="1">
  <advance width="310"/>
  <outline>
    <contour>
      <point x="140" y="0" type="line"/>
      <point x="268" y="640" type="line"/>
      <point x="244" y="640" type="line"/>
      <point x="214" y="622"/>
      <point x="168" y="608"/>
      <point x="120" y="602" type="curve"/>
      <point x="116" y="582" type="line"/>
      <point x="228" y="582" type="line"/>
      <point x="112" y="0" type="line"/>
    </contour>
  </outline>
</glyph>
<glyph name="oogonek" format="1">
  <advance width="500"/>
  <outline>
    <contour>
      <point x="118" y="-140" type="curve" smooth="yes"/>
      <point x="118" y="-182"/>
      <point x="146" y="-202"/>
      <point x="184" y="-202" type="curve" smooth="yes"/>
      <point x="200" y="-202"/>
      <point x="220" y="-196"/>
      <point x="238" y="-186" type="curve"/>
      <point x="228" y="-164" type="line"/>
      <point x="214" y="-172"/>
      <point x="202" y="-176"/>
      <point x="186" y="-176" type="curve" smooth="yes"/>
      <point x="164" y="-176"/>
      <point x="148" y="-160"/>
      <point x="148" y="-134" type="curve" smooth="yes"/>
      <point x="148" y="-94"/>
      <point x="189" y="-37"/>
      <point x="260" y="-6" type="curve" smooth="yes"/>
      <point x="378" y="46"/>
      <point x="452" y="156"/>
      <point x="452" y="304" type="curve" smooth="yes"/>
      <point x="452" y="424"/>
      <point x="390" y="490"/>
      <point x="294" y="490" type="curve" smooth="yes"/>
      <point x="162" y="490"/>
      <point x="48" y="352"/>
      <point x="48" y="174" type="curve" smooth="yes"/>
      <point x="48" y="54"/>
      <point x="104" y="-8"/>
      <point x="202" y="-12" type="curve"/>
      <point x="164" y="-32"/>
      <point x="118" y="-88"/>
    </contour>
    <contour>
      <point x="290" y="464" type="curve" smooth="yes"/>
      <point x="372" y="464"/>
      <point x="424" y="408"/>
      <point x="424" y="298" type="curve" smooth="yes"/>
      <point x="424" y="146"/>
      <point x="318" y="14"/>
      <point x="210" y="14" type="curve" smooth="yes"/>
      <point x="128" y="14"/>
      <point x="76" y="70"/>
      <point x="76" y="180" type="curve" smooth="yes"/>
      <point x="76" y="332"/>
      <point x="182" y="464"/>
    </contour>
    <contour>
      <point x="318" y="502" type="move" name="aboveLC"/>
    </contour>
  </outline>
</glyph>
<glyph name="pe" format="1">
  <advance width="504"/>
  <outline>
    <component base="n"/>
    <contour>
      <point x="320" y="502" type="move" name="aboveLC"/>
    </contour>
    <contour>
      <point x="218" y="-22" type="move" name="belowLC"/>
    </contour>
  </outline>
</glyph>
<glyph name="peso" format="1">
  <advance width="456"/>
  <outline>
    <contour>
      <point x="44" y="0" type="line"/>
      <point x="74" y="0" type="line"/>
      <point x="128" y="274" type="line"/>
      <point x="174" y="274" type="line" smooth="yes"/>
      <point x="318" y="274"/>
      <point x="422" y="348"/>
      <point x="422" y="500" type="curve" smooth="yes"/>
      <point x="422" y="594"/>
      <point x="354" y="640"/>
      <point x="250" y="640" type="curve" smooth="yes"/>
      <point x="172" y="640" type="line"/>
    </contour>
    <contour>
      <point x="134" y="300" type="line"/>
      <point x="196" y="614" type="line"/>
      <point x="230" y="614" type="line" smooth="yes"/>
      <point x="338" y="614"/>
      <point x="394" y="580"/>
      <point x="394" y="494" type="curve" smooth="yes"/>
      <point x="394" y="360"/>
      <point x="306" y="300"/>
      <point x="170" y="300" type="curve" smooth="yes"/>
    </contour>
    <contour>
      <point x="64" y="502" type="line"/>
      <point x="488" y="502" type="line"/>
      <point x="494" y="526" type="line"/>
      <point x="152" y="526" type="line"/>
      <point x="68" y="522" type="line"/>
    </contour>
    <contour>
      <point x="46" y="406" type="line"/>
      <point x="468" y="406" type="line"/>
      <point x="474" y="430" type="line"/>
      <point x="132" y="430" type="line"/>
      <point x="50" y="426" type="line"/>
    </contour>
  </outline>
</glyph>
<glyph name="phi" format="1">
  <advance width="602"/>
  <outline>
    <contour>
      <point x="326" y="315" type="curve" smooth="yes"/>
      <point x="346" y="412"/>
      <point x="390" y="444"/>
      <point x="444" y="444" type="curve" smooth="yes"/>
      <point x="494" y="444"/>
      <point x="528" y="388"/>
      <point x="528" y="310" type="curve" smooth="yes"/>
      <point x="528" y="134"/>
      <point x="414" y="16"/>
      <point x="262" y="14" type="curve"/>
      <point x="256" y="-10" type="line"/>
      <point x="430" y="-8"/>
      <point x="556" y="116"/>
      <point x="556" y="322" type="curve" smooth="yes"/>
      <point x="556" y="404"/>
      <point x="510" y="470"/>
      <point x="446" y="470" type="curve" smooth="yes"/>
      <point x="370" y="470"/>
      <point x="323" y="424"/>
      <point x="303" y="329" type="curve" smooth="yes"/>
      <point x="200" y="-180" type="line"/>
      <point x="230" y="-180" type="line"/>
      <point x="260" y="-18"/>
      <point x="293" y="149"/>
    </contour>
    <contour>
      <point x="46" y="200" type="curve" smooth="yes"/>
      <point x="46" y="62"/>
      <point x="162" y="-10"/>
      <point x="254" y="-10" type="curve"/>
      <point x="260" y="14" type="line"/>
      <point x="176" y="14"/>
      <point x="74" y="76"/>
      <point x="74" y="206" type="curve" smooth="yes"/>
      <point x="74" y="350"/>
      <point x="176" y="442"/>
      <point x="286" y="466" type="curve"/>
      <point x="282" y="490" type="line"/>
      <point x="166" y="466"/>
      <point x="46" y="368"/>
    </contour>
  </outline>
</glyph>
<glyph name="phi.002" format="1">
  <advance width="602"/>
  <outline>
    <contour>
      <point x="326" y="315" type="curve" smooth="yes"/>
      <point x="346" y="412"/>
      <point x="390" y="444"/>
      <point x="436" y="444" type="curve" smooth="yes"/>
      <point x="494" y="444"/>
      <point x="528" y="378"/>
      <point x="528" y="310" type="curve" smooth="yes"/>
      <point x="528" y="134"/>
      <point x="414" y="16"/>
      <point x="262" y="14" type="curve"/>
      <point x="256" y="-10" type="line"/>
      <point x="430" y="-8"/>
      <point x="556" y="116"/>
      <point x="556" y="322" type="curve" smooth="yes"/>
      <point x="556" y="394"/>
      <point x="510" y="470"/>
      <point x="438" y="470" type="curve" smooth="yes"/>
      <point x="370" y="470"/>
      <point x="323" y="424"/>
      <point x="303" y="329" type="curve"/>
      <point x="200" y="-180" type="line"/>
      <point x="230" y="-180" type="line"/>
      <point x="260" y="-18"/>
      <point x="293" y="149"/>
    </contour>
    <contour>
      <point x="46" y="200" type="curve" smooth="yes"/>
      <point x="46" y="62"/>
      <point x="162" y="-10"/>
      <point x="254" y="-10" type="curve"/>
      <point x="260" y="14" type="line"/>
      <point x="176" y="14"/>
      <point x="74" y="76"/>
      <point x="74" y="206" type="curve" smooth="yes"/>
      <point x="74" y="358"/>
      <point x="214" y="518"/>
      <point x="438" y="446" type="curve"/>
      <point x="444" y="470" type="line"/>
      <point x="214" y="548"/>
      <point x="46" y="376"/>
    </contour>
  </outline>
</glyph>
<glyph name="q.sups" format="1">
  <advance width="346"/>
  <outline>
    <contour>
      <point x="356" y="586" type="line"/>
      <point x="336" y="586" type="line"/>
      <point x="324" y="544" type="line"/>
      <point x="320" y="544" type="line"/>
      <point x="302" y="580"/>
      <point x="272" y="594"/>
      <point x="240" y="594" type="curve" smooth="yes"/>
      <point x="150" y="594"/>
      <point x="64" y="498"/>
      <point x="64" y="378" type="curve" smooth="yes"/>
      <point x="64" y="302"/>
      <point x="102" y="262"/>
      <point x="158" y="262" type="curve" smooth="yes"/>
      <point x="204" y="262"/>
      <point x="244" y="286"/>
      <point x="278" y="322" type="curve"/>
      <point x="282" y="322" type="line"/>
      <point x="262" y="240" type="line"/>
      <point x="240" y="130" type="line"/>
      <point x="266" y="130" type="line"/>
    </contour>
    <contour>
      <point x="160" y="286" type="curve" smooth="yes"/>
      <point x="120" y="286"/>
      <point x="90" y="316"/>
      <point x="90" y="382" type="curve" smooth="yes"/>
      <point x="90" y="476"/>
      <point x="164" y="570"/>
      <point x="238" y="570" type="curve" smooth="yes"/>
      <point x="266" y="570"/>
      <point x="292" y="556"/>
      <point x="316" y="512" type="curve"/>
      <point x="286" y="360" type="line"/>
      <point x="248" y="318"/>
      <point x="200" y="286"/>
    </contour>
  </outline>
</glyph>
<glyph name="questiondown" format="1">
  <advance width="380"/>
  <outline>
    <contour>
      <point x="254" y="492" type="curve" smooth="yes"/>
      <point x="232" y="492"/>
      <point x="214" y="470"/>
      <point x="214" y="448" type="curve" smooth="yes"/>
      <point x="214" y="430"/>
      <point x="222" y="416"/>
      <point x="240" y="416" type="curve" smooth="yes"/>
      <point x="262" y="416"/>
      <point x="282" y="440"/>
      <point x="282" y="462" type="curve" smooth="yes"/>
      <point x="282" y="478"/>
      <point x="272" y="492"/>
    </contour>
    <contour>
      <point x="236" y="304" type="curve"/>
      <point x="210" y="306" type="line"/>
      <point x="202" y="142"/>
      <point x="-6" y="92"/>
      <point x="-6" y="-74" type="curve" smooth="yes"/>
      <point x="-6" y="-154"/>
      <point x="42" y="-202"/>
      <point x="122" y="-202" type="curve" smooth="yes"/>
      <point x="182" y="-202"/>
      <point x="238" y="-170"/>
      <point x="270" y="-134" type="curve"/>
      <point x="252" y="-114" type="line"/>
      <point x="220" y="-150"/>
      <point x="172" y="-176"/>
      <point x="124" y="-176" type="curve" smooth="yes"/>
      <point x="60" y="-176"/>
      <point x="22" y="-136"/>
      <point x="22" y="-68" type="curve" smooth="yes"/>
      <point x="22" y="78"/>
      <point x="230" y="128"/>
    </contour>
  </outline>
</glyph>
<glyph name="r" format="1">
  <advance width="308"/>
  <outline>
    <contour>
      <point x="44" y="0" type="line"/>
      <point x="72" y="0" type="line"/>
      <point x="136" y="322" type="line"/>
      <point x="180" y="410"/>
      <point x="244" y="462"/>
      <point x="296" y="462" type="curve" smooth="yes"/>
      <point x="314" y="462"/>
      <point x="324" y="458"/>
      <point x="332" y="454" type="curve"/>
      <point x="344" y="482" type="line"/>
      <point x="328" y="488"/>
      <point x="314" y="490"/>
      <point x="302" y="490" type="curve" smooth="yes"/>
      <point x="240" y="490"/>
      <point x="192" y="444"/>
      <point x="152" y="388" type="curve"/>
      <point x="148" y="388" type="line"/>
      <point x="164" y="478" type="line"/>
      <point x="140" y="478" type="line"/>
    </contour>
    <contour>
      <point x="236" y="502" type="move" name="aboveLC"/>
    </contour>
    <contour>
      <point x="64" y="-22" type="move" name="belowLC"/>
    </contour>
  </outline>
</glyph>
<glyph name="radical" format="1">
  <advance width="514"/>
  <outline>
    <contour>
      <point x="220" y="-14" type="line"/>
      <point x="174" y="378" type="line"/>
      <point x="68" y="328" type="line"/>
      <point x="72" y="302" type="line"/>
      <point x="148" y="334" type="line"/>
      <point x="204" y="-108" type="line"/>
      <point x="232" y="-108" type="line"/>
      <point x="628" y="820" type="line"/>
      <point x="596" y="820" type="line"/>
      <point x="244" y="-14" type="line"/>
      <point x="226" y="-60" type="line"/>
      <point x="222" y="-60" type="line"/>
    </contour>
  </outline>
</glyph>
<glyph name="ringcmb.cap" format="1">
  <advance width="0"/>
  <outline>
    <contour>
      <point x="128" y="698" type="curve" smooth="yes"/>
      <point x="174" y="698"/>
      <point x="214" y="738"/>
      <point x="214" y="788" type="curve" smooth="yes"/>
      <point x="214" y="838"/>
      <point x="184" y="862"/>
      <point x="144" y="862" type="curve" smooth="yes"/>
      <point x="98" y="862"/>
      <point x="58" y="822"/>
      <point x="58" y="772" type="curve" smooth="yes"/>
      <point x="58" y="722"/>
      <point x="88" y="698"/>
    </contour>
    <contour>
      <point x="142" y="840" type="curve" smooth="yes"/>
      <point x="172" y="840"/>
      <point x="190" y="820"/>
      <point x="190" y="786" type="curve" smooth="yes"/>
      <point x="190" y="748"/>
      <point x="162" y="720"/>
      <point x="130" y="720" type="curve" smooth="yes"/>
      <point x="100" y="720"/>
      <point x="82" y="740"/>
      <point x="82" y="774" type="curve" smooth="yes"/>
      <point x="82" y="812"/>
      <point x="110" y="840"/>
    </contour>
    <contour>
      <point x="136" y="682" type="move" name="_aboveUC"/>
    </contour>
  </outline>
</glyph>
<glyph name="seven.dnom" format="1">
  <advance width="344"/>
  <outline>
    <contour>
      <point x="82" y="0" type="curve"/>
      <point x="112" y="0" type="line"/>
      <point x="140" y="124"/>
      <point x="188" y="244"/>
      <point x="320" y="372" type="curve"/>
      <point x="322" y="390" type="line"/>
      <point x="76" y="390" type="line"/>
      <point x="70" y="366" type="line"/>
      <point x="284" y="366" type="line"/>
      <point x="176" y="256"/>
      <point x="116" y="136"/>
    </contour>
  </outline>
</glyph>
<glyph name="sigma.end" format="1">
  <advance width="428"/>
  <outline>
    <contour>
      <point x="44" y="176" type="curve" smooth="yes"/>
      <point x="44" y="72"/>
      <point x="98" y="19"/>
      <point x="172" y="-4" type="curve" smooth="yes"/>
      <point x="250" y="-28"/>
      <point x="270" y="-47"/>
      <point x="270" y="-70" type="curve" smooth="yes"/>
      <point x="270" y="-104"/>
      <point x="244" y="-138"/>
      <point x="212" y="-172" type="curve"/>
      <point x="232" y="-186" type="line"/>
      <point x="262" y="-152"/>
      <point x="298" y="-110"/>
      <point x="298" y="-66" type="curve" smooth="yes"/>
      <point x="298" y="-22"/>
      <point x="261" y="-2"/>
      <point x="192" y="18" type="curve"/>
      <point x="124" y="39"/>
      <point x="72" y="80"/>
      <point x="72" y="182" type="curve" smooth="yes"/>
      <point x="72" y="334"/>
      <point x="184" y="464"/>
      <point x="296" y="464" type="curve" smooth="yes"/>
      <point x="342" y="464"/>
      <point x="368" y="448"/>
      <point x="398" y="412" type="curve"/>
      <point x="418" y="432" type="line"/>
      <point x="386" y="468"/>
      <point x="352" y="490"/>
      <point x="298" y="490" type="curve" smooth="yes"/>
      <point x="174" y="490"/>
      <point x="44" y="364"/>
    </contour>
  </outline>
</glyph>
<glyph name="slash" format="1">
  <advance width="350"/>
  <outline>
    <contour>
      <point x="-74" y="-160" type="line"/>
      <point x="-46" y="-160" type="line"/>
      <point x="438" y="710" type="line"/>
      <point x="410" y="710" type="line"/>
    </contour>
  </outline>
</glyph>
<glyph name="squareblack" format="1">
  <advance width="262"/>
  <outline>
    <contour>
      <point x="50" y="350" type="line"/>
      <point x="50" y="178" type="line"/>
      <point x="212" y="178" type="line"/>
      <point x="212" y="350" type="line"/>
    </contour>
  </outline>
</glyph>
<glyph name="squareshadow" format="1">
  <advance width="330"/>
  <outline>
    <contour>
      <point x="219" y="314" type="line"/>
      <point x="219" y="168" type="line"/>
      <point x="81" y="168" type="line"/>
      <point x="81" y="314" type="line"/>
    </contour>
    <contour>
      <point x="53" y="138" type="line"/>
      <point x="239" y="138" type="line"/>
      <point x="281" y="188" type="line"/>
      <point x="281" y="380" type="line"/>
      <point x="103" y="380" type="line"/>
      <point x="53" y="336" type="line"/>
    </contour>
  </outline>
</glyph>
<glyph name="summation" format="1">
  <advance width="464"/>
  <outline>
    <contour>
      <point x="-50" y="-94" type="line"/>
      <point x="-54" y="-120" type="line"/>
      <point x="388" y="-120" type="line"/>
      <point x="396" y="-94" type="line"/>
      <point x="-12" y="-94" type="line"/>
      <point x="-12" y="-90" type="line"/>
      <point x="308" y="262" type="line"/>
      <point x="134" y="610" type="line"/>
      <point x="134" y="614" type="line"/>
      <point x="504" y="614" type="line"/>
      <point x="510" y="640" type="line"/>
      <point x="108" y="640" type="line"/>
      <point x="104" y="614" type="line"/>
      <point x="278" y="268" type="line"/>
    </contour>
  </outline>
</glyph>
<glyph name="te" format="1">
  <advance width="776"/>
  <outline>
    <component base="m"/>
    <contour>
      <point x="460" y="502" type="move" name="aboveLC"/>
    </contour>
    <contour>
      <point x="352" y="-22" type="move" name="belowLC"/>
    </contour>
  </outline>
</glyph>
<glyph name="tonos.cap" format="1">
  <advance width="18"/>
  <outline>
    <contour>
      <point x="42" y="489" type="line"/>
      <point x="120" y="670" type="line"/>
      <point x="85" y="670" type="line"/>
      <point x="20" y="489" type="line"/>
    </contour>
  </outline>
</glyph>
<glyph name="triangleblackdown" format="1">
  <advance width="530"/>
  <outline>
    <contour>
      <point x="266" y="38" type="line"/>
      <point x="506" y="508" type="line"/>
      <point x="506" y="510" type="line"/>
      <point x="24" y="510" type="line"/>
      <point x="24" y="508" type="line"/>
      <point x="264" y="38" type="line"/>
    </contour>
  </outline>
</glyph>
<glyph name="triangleblackright" format="1">
  <advance width="534"/>
  <outline>
    <contour>
      <point x="510" y="284" type="line"/>
      <point x="60" y="532" type="line"/>
      <point x="58" y="532" type="line"/>
      <point x="58" y="32" type="line"/>
      <point x="60" y="32" type="line"/>
      <point x="510" y="280" type="line"/>
    </contour>
  </outline>
</glyph>
<glyph name="triangleblackup" format="1">
  <advance width="530"/>
  <outline>
    <contour>
      <point x="264" y="524" type="line"/>
      <point x="24" y="54" type="line"/>
      <point x="24" y="52" type="line"/>
      <point x="506" y="52" type="line"/>
      <point x="506" y="54" type="line"/>
      <point x="266" y="524" type="line"/>
    </contour>
  </outline>
</glyph>
<glyph name="trianglewhiteleft" format="1">
  <advance width="534"/>
  <outline>
    <contour>
      <point x="79" y="282" type="line"/>
      <point x="445" y="482" type="line"/>
      <point x="445" y="82" type="line"/>
    </contour>
    <contour>
      <point x="474" y="531" type="line"/>
      <point x="472" y="531" type="line"/>
      <point x="21" y="284" type="line"/>
      <point x="21" y="280" type="line"/>
      <point x="472" y="31" type="line"/>
      <point x="474" y="31" type="line"/>
    </contour>
  </outline>
</glyph>
<glyph name="trianglewhiteup" format="1">
  <advance width="530"/>
  <outline>
    <contour>
      <point x="76" y="79" type="line"/>
      <point x="267" y="469" type="line"/>
      <point x="457" y="79" type="line"/>
    </contour>
    <contour>
      <point x="25" y="53" type="line"/>
      <point x="507" y="53" type="line"/>
      <point x="507" y="55" type="line"/>
      <point x="269" y="523" type="line"/>
      <point x="265" y="523" type="line"/>
      <point x="25" y="55" type="line"/>
    </contour>
  </outline>
</glyph>
<glyph name="tse" format="1">
  <advance width="508"/>
  <outline>
    <contour>
      <point x="356" y="0" type="line"/>
      <point x="399" y="0" type="line"/>
      <point x="366" y="-172" type="line"/>
      <point x="388" y="-172" type="line"/>
      <point x="430" y="12" type="line"/>
      <point x="432" y="26" type="line"/>
      <point x="362" y="26" type="line"/>
    </contour>
    <component base="u"/>
  </outline>
</glyph>
<glyph name="two.pnum" format="1">
  <advance width="448"/>
  <outline>
    <contour>
      <point x="-8" y="0" type="line"/>
      <point x="352" y="0" type="line"/>
      <point x="356" y="26" type="line"/>
      <point x="42" y="26" type="line"/>
      <point x="304" y="258"/>
      <point x="420" y="356"/>
      <point x="420" y="506" type="curve" smooth="yes"/>
      <point x="420" y="588"/>
      <point x="370" y="652"/>
      <point x="278" y="652" type="curve" smooth="yes"/>
      <point x="214" y="652"/>
      <point x="162" y="622"/>
      <point x="106" y="574" type="curve"/>
      <point x="124" y="552" type="line"/>
      <point x="174" y="602"/>
      <point x="228" y="626"/>
      <point x="276" y="626" type="curve" smooth="yes"/>
      <point x="354" y="626"/>
      <point x="392" y="568"/>
      <point x="392" y="500" type="curve" smooth="yes"/>
      <point x="392" y="366"/>
      <point x="282" y="274"/>
      <point x="-6" y="20" type="curve"/>
    </contour>
  </outline>
</glyph>
<glyph name="u" format="1">
  <advance width="504"/>
  <outline>
    <contour>
      <point x="462" y="478" type="line"/>
      <point x="434" y="478" type="line"/>
      <point x="362" y="120" type="line"/>
      <point x="286" y="46"/>
      <point x="226" y="14"/>
      <point x="182" y="14" type="curve" smooth="yes"/>
      <point x="118" y="14"/>
      <point x="92" y="46"/>
      <point x="92" y="108" type="curve" smooth="yes"/>
      <point x="92" y="128"/>
      <point x="94" y="142"/>
      <point x="100" y="172" type="curve" smooth="yes"/>
      <point x="162" y="478" type="line"/>
      <point x="134" y="478" type="line"/>
      <point x="72" y="168" type="line" smooth="yes"/>
      <point x="66" y="140"/>
      <point x="64" y="128"/>
      <point x="64" y="104" type="curve" smooth="yes"/>
      <point x="64" y="36"/>
      <point x="96" y="-12"/>
      <point x="178" y="-12" type="curve" smooth="yes"/>
      <point x="236" y="-12"/>
      <point x="290" y="28"/>
      <point x="350" y="80" type="curve"/>
      <point x="354" y="80" type="line"/>
      <point x="342" y="0" type="line"/>
      <point x="366" y="0" type="line"/>
    </contour>
    <contour>
      <point x="302" y="502" type="move" name="aboveLC"/>
    </contour>
    <contour>
      <point x="234" y="-22" type="move" name="belowLC"/>
    </contour>
    <contour>
      <point x="434" y="488" type="move" name="hornLC"/>
    </contour>
    <contour>
      <point x="318" y="0" type="move" name="ogonekLC"/>
    </contour>
  </outline>
</glyph>
<glyph name="u.sups" format="1">
  <advance width="346"/>
  <outline>
    <contour>
      <point x="352" y="586" type="line"/>
      <point x="326" y="586" type="line"/>
      <point x="280" y="356" type="line"/>
      <point x="232" y="308"/>
      <point x="194" y="286"/>
      <point x="158" y="286" type="curve" smooth="yes"/>
      <point x="125" y="286"/>
      <point x="108" y="306"/>
      <point x="108" y="346" type="curve" smooth="yes"/>
      <point x="108" y="358"/>
      <point x="110" y="368"/>
      <point x="114" y="386" type="curve" smooth="yes"/>
      <point x="154" y="586" type="line"/>
      <point x="128" y="586" type="line"/>
      <point x="88" y="382" type="line" smooth="yes"/>
      <point x="84" y="364"/>
      <point x="82" y="356"/>
      <point x="82" y="340" type="curve" smooth="yes"/>
      <point x="82" y="292"/>
      <point x="100" y="262"/>
      <point x="156" y="262" type="curve" smooth="yes"/>
      <point x="196" y="262"/>
      <point x="232" y="286"/>
      <point x="270" y="318" type="curve"/>
      <point x="274" y="318" type="line"/>
      <point x="268" y="270" type="line"/>
      <point x="290" y="270" type="line"/>
    </contour>
  </outline>
</glyph>
<glyph name="uhornhoi" format="1">
  <advance width="524"/>
  <outline>
    <contour>
      <point x="534" y="584" type="line"/>
      <point x="538" y="570"/>
      <point x="538" y="564"/>
      <point x="538" y="554" type="curve" smooth="yes"/>
      <point x="538" y="508"/>
      <point x="488" y="484"/>
      <point x="442" y="478" type="curve"/>
      <point x="459" y="455" type="line"/>
      <point x="519" y="464"/>
      <point x="568" y="508"/>
      <point x="568" y="560" type="curve" smooth="yes"/>
      <point x="568" y="572"/>
      <point x="566" y="582"/>
      <point x="560" y="596" type="curve"/>
    </contour>
    <component base="u"/>
    <component base="hoicmb" xOffset="204"/>
  </outline>
</glyph>
<glyph name="underscore" format="1">
  <advance width="484"/>
  <outline>
    <contour>
      <point x="-20" y="-84" type="line"/>
      <point x="-26" y="-112" type="line"/>
      <point x="432" y="-112" type="line"/>
      <point x="438" y="-84" type="line"/>
    </contour>
  </outline>
</glyph>
<glyph name="uogonek" format="1">
  <advance width="504"/>
  <outline>
    <contour>
      <point x="462" y="478" type="line"/>
      <point x="434" y="478" type="line"/>
      <point x="362" y="120" type="line"/>
      <point x="286" y="46"/>
      <point x="226" y="14"/>
      <point x="182" y="14" type="curve" smooth="yes"/>
      <point x="118" y="14"/>
      <point x="92" y="46"/>
      <point x="92" y="108" type="curve" smooth="yes"/>
      <point x="92" y="128"/>
      <point x="94" y="142"/>
      <point x="100" y="172" type="curve" smooth="yes"/>
      <point x="162" y="478" type="line"/>
      <point x="134" y="478" type="line"/>
      <point x="72" y="168" type="line" smooth="yes"/>
      <point x="66" y="140"/>
      <point x="64" y="128"/>
      <point x="64" y="104" type="curve" smooth="yes"/>
      <point x="64" y="36"/>
      <point x="96" y="-12"/>
      <point x="178" y="-12" type="curve" smooth="yes"/>
      <point x="236" y="-12"/>
      <point x="290" y="28"/>
      <point x="350" y="80" type="curve"/>
      <point x="354" y="80" type="line"/>
      <point x="344" y="10" type="line"/>
      <point x="278" y="-24"/>
      <point x="222" y="-84"/>
      <point x="222" y="-140" type="curve" smooth="yes"/>
      <point x="222" y="-182"/>
      <point x="250" y="-202"/>
      <point x="288" y="-202" type="curve" smooth="yes"/>
      <point x="304" y="-202"/>
      <point x="324" y="-196"/>
      <point x="342" y="-186" type="curve"/>
      <point x="332" y="-164" type="line"/>
      <point x="318" y="-172"/>
      <point x="306" y="-176"/>
      <point x="290" y="-176" type="curve" smooth="yes"/>
      <point x="268" y="-176"/>
      <point x="252" y="-160"/>
      <point x="252" y="-134" type="curve" smooth="yes"/>
      <point x="252" y="-88"/>
      <point x="296" y="-40"/>
      <point x="366" y="0" type="curve"/>
    </contour>
    <contour>
      <point x="302" y="502" type="move" name="aboveLC"/>
    </contour>
  </outline>
</glyph>
<glyph name="v" format="1">
  <advance width="408"/>
  <outline>
    <contour>
      <point x="136" y="0" type="line"/>
      <point x="174" y="0" type="line"/>
      <point x="438" y="478" type="line"/>
      <point x="408" y="478" type="line"/>
      <point x="238" y="166" type="line" smooth="yes"/>
      <point x="212" y="120"/>
      <point x="186" y="72"/>
      <point x="162" y="26" type="curve"/>
      <point x="158" y="26" type="line"/>
      <point x="150" y="70"/>
      <point x="144" y="120"/>
      <point x="136" y="166" type="curve" smooth="yes"/>
      <point x="86" y="478" type="line"/>
      <point x="58" y="478" type="line"/>
    </contour>
    <contour>
      <point x="266" y="502" type="move" name="aboveLC"/>
    </contour>
    <contour>
      <point x="166" y="-22" type="move" name="belowLC"/>
    </contour>
  </outline>
</glyph>
<glyph name="ve" format="1">
  <advance width="460"/>
  <outline>
    <contour>
      <point x="272" y="490" type="curve" smooth="yes"/>
      <point x="162" y="490"/>
      <point x="46" y="380"/>
      <point x="46" y="176" type="curve" smooth="yes"/>
      <point x="46" y="56"/>
      <point x="128" y="-12"/>
      <point x="232" y="-12" type="curve" smooth="yes"/>
      <point x="333" y="-12"/>
      <point x="392" y="46"/>
      <point x="392" y="140" type="curve" smooth="yes"/>
      <point x="392" y="202"/>
      <point x="348" y="239"/>
      <point x="306" y="252" type="curve"/>
      <point x="306" y="256" type="line"/>
      <point x="362" y="272"/>
      <point x="406" y="314"/>
      <point x="406" y="376" type="curve" smooth="yes"/>
      <point x="406" y="448"/>
      <point x="351" y="490"/>
    </contour>
    <contour>
      <point x="234" y="14" type="curve" smooth="yes"/>
      <point x="144" y="14"/>
      <point x="74" y="72"/>
      <point x="74" y="182" type="curve" smooth="yes"/>
      <point x="74" y="364"/>
      <point x="180" y="464"/>
      <point x="270" y="464" type="curve" smooth="yes"/>
      <point x="329" y="464"/>
      <point x="378" y="435"/>
      <point x="378" y="374" type="curve" smooth="yes"/>
      <point x="378" y="311"/>
      <point x="325" y="268"/>
      <point x="216" y="268" type="curve" smooth="yes"/>
      <point x="74" y="268" type="line"/>
      <point x="69" y="242" type="line"/>
      <point x="225" y="242" type="line" smooth="yes"/>
      <point x="312" y="242"/>
      <point x="364" y="203"/>
      <point x="364" y="138" type="curve" smooth="yes"/>
      <point x="364" y="63"/>
      <point x="313" y="14"/>
    </contour>
  </outline>
</glyph>
<glyph name="verticallinelowmod" format="1">
  <advance width="84"/>
  <outline>
    <contour>
      <point x="-8" y="-76" type="line"/>
      <point x="-28" y="-76" type="line"/>
      <point x="-66" y="-244" type="line"/>
      <point x="-36" y="-244" type="line"/>
    </contour>
  </outline>
</glyph>
<glyph name="verticallinemod" format="1">
  <advance width="84"/>
  <outline>
    <contour>
      <point x="98" y="588" type="line"/>
      <point x="118" y="588" type="line"/>
      <point x="156" y="756" type="line"/>
      <point x="126" y="756" type="line"/>
    </contour>
  </outline>
</glyph>
<glyph name="y" format="1">
  <advance width="408"/>
  <outline>
    <contour>
      <point x="-72" y="-188" type="curve"/>
      <point x="-84" y="-212" type="line"/>
      <point x="-66" y="-220"/>
      <point x="-50" y="-222"/>
      <point x="-40" y="-222" type="curve" smooth="yes"/>
      <point x="46" y="-222"/>
      <point x="100" y="-140"/>
      <point x="138" y="-66" type="curve"/>
      <point x="438" y="478" type="line"/>
      <point x="408" y="478" type="line"/>
      <point x="238" y="166" type="line" smooth="yes"/>
      <point x="212" y="118"/>
      <point x="186" y="70"/>
      <point x="162" y="24" type="curve"/>
      <point x="158" y="24" type="line"/>
      <point x="152" y="68"/>
      <point x="144" y="120"/>
      <point x="136" y="166" type="curve" smooth="yes"/>
      <point x="86" y="478" type="line"/>
      <point x="58" y="478" type="line"/>
      <point x="138" y="-10" type="line"/>
      <point x="116" y="-54" type="line" smooth="yes"/>
      <point x="74" y="-140"/>
      <point x="22" y="-196"/>
      <point x="-38" y="-196" type="curve" smooth="yes"/>
      <point x="-50" y="-196"/>
      <point x="-60" y="-194"/>
    </contour>
    <contour>
      <point x="248" y="502" type="move" name="aboveLC"/>
    </contour>
    <contour>
      <point x="88" y="-242" type="move" name="belowLC"/>
    </contour>
  </outline>
</glyph>
<glyph name="ya" format="1">
  <advance width="470"/>
  <outline>
    <contour>
      <point x="225" y="217" type="curve"/>
      <point x="339" y="217" type="line"/>
      <point x="295" y="0" type="line"/>
      <point x="323" y="0" type="line"/>
      <point x="418" y="478" type="line"/>
      <point x="285" y="478" type="line" smooth="yes"/>
      <point x="170" y="478"/>
      <point x="85" y="435"/>
      <point x="85" y="326" type="curve" smooth="yes"/>
      <point x="85" y="251"/>
      <point x="146" y="217"/>
    </contour>
    <contour>
      <point x="247" y="244" type="line" smooth="yes"/>
      <point x="166" y="244"/>
      <point x="116" y="273"/>
      <point x="116" y="332" type="curve" smooth="yes"/>
      <point x="116" y="416"/>
      <point x="184" y="451"/>
      <point x="289" y="451" type="curve" smooth="yes"/>
      <point x="385" y="451" type="line"/>
      <point x="344" y="244" type="line"/>
    </contour>
    <contour>
      <point x="-10" y="0" type="line"/>
      <point x="21" y="0" type="line"/>
      <point x="201" y="218" type="line"/>
      <point x="182" y="230" type="line"/>
    </contour>
  </outline>
</glyph>
<glyph name="yat" format="1">
  <advance width="740"/>
  <outline>
    <contour>
      <point x="44" y="0" type="line"/>
      <point x="72" y="0" type="line"/>
      <point x="144" y="358" type="line"/>
      <point x="220" y="432"/>
      <point x="280" y="464"/>
      <point x="324" y="464" type="curve" smooth="yes"/>
      <point x="388" y="464"/>
      <point x="414" y="432"/>
      <point x="414" y="370" type="curve" smooth="yes"/>
      <point x="414" y="350"/>
      <point x="412" y="336"/>
      <point x="406" y="306" type="curve" smooth="yes"/>
      <point x="378" y="172" type="line"/>
      <point x="406" y="172" type="line"/>
      <point x="434" y="310" type="line" smooth="yes"/>
      <point x="440" y="338"/>
      <point x="442" y="350"/>
      <point x="442" y="374" type="curve" smooth="yes"/>
      <point x="442" y="442"/>
      <point x="410" y="490"/>
      <point x="328" y="490" type="curve" smooth="yes"/>
      <point x="270" y="490"/>
      <point x="216" y="452"/>
      <point x="156" y="400" type="curve"/>
      <point x="152" y="400" type="line"/>
      <point x="164" y="478" type="line"/>
      <point x="140" y="478" type="line"/>
    </contour>
    <contour>
      <point x="524" y="-12" type="curve" smooth="yes"/>
      <point x="612" y="-12"/>
      <point x="680" y="60"/>
      <point x="680" y="152" type="curve" smooth="yes"/>
      <point x="680" y="218"/>
      <point x="634" y="278"/>
      <point x="543" y="278" type="curve" smooth="yes"/>
      <point x="506" y="278"/>
      <point x="468" y="268"/>
      <point x="420" y="238" type="curve"/>
      <point x="430" y="306" type="line"/>
      <point x="406" y="306" type="line"/>
      <point x="378" y="172" type="line" smooth="yes"/>
      <point x="376" y="160"/>
      <point x="374" y="146"/>
      <point x="374" y="132" type="curve" smooth="yes"/>
      <point x="374" y="46"/>
      <point x="438" y="-12"/>
    </contour>
    <contour>
      <point x="526" y="14" type="curve" smooth="yes"/>
      <point x="458" y="14"/>
      <point x="402" y="58"/>
      <point x="402" y="138" type="curve" smooth="yes"/>
      <point x="402" y="150"/>
      <point x="406" y="172"/>
      <point x="414" y="210" type="curve"/>
      <point x="464" y="242"/>
      <point x="500" y="252"/>
      <point x="541" y="252" type="curve" smooth="yes"/>
      <point x="614" y="252"/>
      <point x="652" y="206"/>
      <point x="652" y="146" type="curve" smooth="yes"/>
      <point x="652" y="70"/>
      <point x="592" y="14"/>
    </contour>
  </outline>
</glyph>
<glyph name="yat.001" format="1">
  <advance width="556"/>
  <outline>
    <contour>
      <point x="134" y="0" type="line"/>
      <point x="287" y="0" type="line" smooth="yes"/>
      <point x="411" y="0"/>
      <point x="489" y="63"/>
      <point x="489" y="169" type="curve" smooth="yes"/>
      <point x="489" y="241"/>
      <point x="436" y="281"/>
      <point x="343" y="281" type="curve" smooth="yes"/>
      <point x="217" y="281" type="line"/>
      <point x="251" y="451" type="line"/>
      <point x="447" y="451" type="line"/>
      <point x="453" y="478" type="line"/>
      <point x="256" y="478" type="line"/>
      <point x="284" y="618" type="line"/>
      <point x="257" y="618" type="line"/>
      <point x="229" y="478" type="line"/>
      <point x="65" y="478" type="line"/>
      <point x="60" y="451" type="line"/>
      <point x="224" y="451" type="line"/>
    </contour>
    <contour>
      <point x="166" y="26" type="line"/>
      <point x="212" y="255" type="line"/>
      <point x="328" y="255" type="line" smooth="yes"/>
      <point x="416" y="255"/>
      <point x="459" y="228"/>
      <point x="459" y="166" type="curve" smooth="yes"/>
      <point x="459" y="73"/>
      <point x="404" y="26"/>
      <point x="282" y="26" type="curve" smooth="yes"/>
    </contour>
  </outline>
</glyph>
<glyph name="yeru" format="1">
  <advance width="608"/>
  <outline>
    <contour>
      <point x="442" y="0" type="line"/>
      <point x="470" y="0" type="line"/>
      <point x="566" y="478" type="line"/>
      <point x="538" y="478" type="line"/>
    </contour>
    <contour>
      <point x="220" y="-12" type="curve" smooth="yes"/>
      <point x="308" y="-12"/>
      <point x="376" y="60"/>
      <point x="376" y="152" type="curve" smooth="yes"/>
      <point x="376" y="218"/>
      <point x="330" y="278"/>
      <point x="239" y="278" type="curve" smooth="yes"/>
      <point x="202" y="278"/>
      <point x="164" y="268"/>
      <point x="116" y="238" type="curve"/>
      <point x="164" y="478" type="line"/>
      <point x="136" y="478" type="line"/>
      <point x="74" y="172" type="line" smooth="yes"/>
      <point x="72" y="160"/>
      <point x="70" y="146"/>
      <point x="70" y="132" type="curve" smooth="yes"/>
      <point x="70" y="46"/>
      <point x="134" y="-12"/>
    </contour>
    <contour>
      <point x="222" y="14" type="curve" smooth="yes"/>
      <point x="154" y="14"/>
      <point x="98" y="58"/>
      <point x="98" y="138" type="curve" smooth="yes"/>
      <point x="98" y="150"/>
      <point x="102" y="172"/>
      <point x="110" y="210" type="curve"/>
      <point x="160" y="242"/>
      <point x="196" y="252"/>
      <point x="237" y="252" type="curve" smooth="yes"/>
      <point x="310" y="252"/>
      <point x="348" y="206"/>
      <point x="348" y="146" type="curve" smooth="yes"/>
      <point x="348" y="70"/>
      <point x="288" y="14"/>
    </contour>
  </outline>
</glyph>
<glyph name="zero.0ps" format="1">
  <advance width="474"/>
  <outline>
    <contour>
      <point x="350" y="118" type="line"/>
      <point x="373" y="126" type="line"/>
      <point x="154" y="526" type="line"/>
      <point x="131" y="518" type="line"/>
    </contour>
    <component base="zero.pnum"/>
  </outline>
</glyph>
<glyph name="zhe" format="1">
  <advance width="590"/>
  <outline>
    <contour>
      <point x="-37" y="0" type="line"/>
      <point x="-6" y="0" type="line"/>
      <point x="188" y="237" type="line"/>
      <point x="274" y="237" type="line"/>
      <point x="227" y="0" type="line"/>
      <point x="254" y="0" type="line"/>
      <point x="301" y="237" type="line"/>
      <point x="388" y="237" type="line"/>
      <point x="487" y="0" type="line"/>
      <point x="518" y="0" type="line"/>
      <point x="411" y="252" type="line"/>
      <point x="603" y="478" type="line"/>
      <point x="573" y="478" type="line"/>
      <point x="389" y="263" type="line"/>
      <point x="307" y="263" type="line"/>
      <point x="349" y="478" type="line"/>
      <point x="322" y="478" type="line"/>
      <point x="279" y="263" type="line"/>
      <point x="197" y="263" type="line"/>
      <point x="99" y="478" type="line"/>
      <point x="68" y="478" type="line"/>
      <point x="170" y="252" type="line"/>
    </contour>
    <contour>
      <point x="334" y="502" type="move" name="aboveLC"/>
    </contour>
  </outline>
</glyph>
